<?xml version="1.0" encoding="UTF-8" standalone="no"?>
<svg
   xmlns:dc="http://purl.org/dc/elements/1.1/"
   xmlns:cc="http://creativecommons.org/ns#"
   xmlns:rdf="http://www.w3.org/1999/02/22-rdf-syntax-ns#"
   xmlns:svg="http://www.w3.org/2000/svg"
   xmlns="http://www.w3.org/2000/svg"
   viewBox="0 0 1017.3467 1006.6267"
   height="1006.6267"
   width="1017.3467"
   xml:space="preserve"
   id="svg2"
   version="1.1"><metadata
     id="metadata8"><rdf:RDF><cc:Work
         rdf:about=""><dc:format>image/svg+xml</dc:format><dc:type
           rdf:resource="http://purl.org/dc/dcmitype/StillImage" /></cc:Work></rdf:RDF></metadata><defs
     id="defs6" /><g
     transform="matrix(1.3333333,0,0,-1.3333333,0,1006.6267)"
     id="g10"><g
       transform="scale(0.1)"
       id="g12"><path
         id="path14"
         style="fill:#f795c8;fill-opacity:1;fill-rule:nonzero;stroke:none"
         d="m 3465.93,6841.63 c -2.65,-3.48 -5.37,-6.85 -8.09,-10.1 -21.75,-26.01 -44.85,-50.82 -66.44,-77.02 -0.59,-0.71 -1.25,-1.47 -2.18,-1.67 -1.05,-0.21 -2.09,0.34 -3.02,0.89 -49.1,28.96 -169.09,145.23 -89.51,196.21 17.39,11.13 42.47,4.52 57.41,-9.81 14.94,-14.34 21.93,-34.38 27.47,-53.84 7.09,16.29 17.11,31.39 29.49,44.44 13.46,14.18 36.56,16.94 55.17,10.19 45.86,-16.63 18.98,-73.99 -0.3,-99.29" /><path
         id="path16"
         style="fill:#f795c8;fill-opacity:1;fill-rule:nonzero;stroke:none"
         d="m 2858.34,5908.12 c 4.05,-1.65 8.01,-3.4 11.85,-5.17 30.78,-14.22 60.76,-30.06 91.69,-44.07 0.84,-0.38 1.74,-0.82 2.17,-1.67 0.49,-0.95 0.22,-2.11 -0.06,-3.14 -15.16,-54.96 -96.13,-201.11 -166.1,-137.57 -15.27,13.88 -15.44,39.82 -5.49,57.98 9.95,18.16 27.47,30.14 44.81,40.55 -17.57,2.6 -34.76,8.34 -50.59,16.89 -17.2,9.29 -25.88,30.87 -24.21,50.61 4.09,48.6 66.47,37.61 95.93,25.59" /><path
         id="path18"
         style="fill:#f795c8;fill-opacity:1;fill-rule:nonzero;stroke:none"
         d="m 2795.26,6615.83 c 1.4,-4.14 2.68,-8.28 3.86,-12.35 9.43,-32.57 17.12,-65.59 26.81,-98.12 0.26,-0.89 0.52,-1.86 0.16,-2.74 -0.4,-0.99 -1.45,-1.55 -2.42,-2.01 -51.44,-24.57 -214.89,-59.21 -212.75,35.29 0.46,20.63 19.95,37.76 40.18,42.14 20.24,4.39 40.77,-0.99 60.01,-7.27 -9.56,14.98 -16.49,31.72 -20.4,49.28 -4.26,19.08 6.35,39.79 22.34,51.47 39.4,28.75 71.98,-25.57 82.21,-55.69" /><path
         id="path20"
         style="fill:#a1dfdc;fill-opacity:1;fill-rule:nonzero;stroke:none"
         d="m 3915.12,7204.2 c 1993.64,0 3614.75,-1594.8 3657.3,-3578.24 0.58,26.6 0.93,53.26 0.93,80 0,2020.38 -1637.85,3658.24 -3658.23,3658.24 -2020.4,0 -3658.241,-1637.86 -3658.241,-3658.24 0,-26.74 0.351,-53.4 0.922,-80 C 300.363,5609.4 1921.47,7204.2 3915.12,7204.2" /><path
         id="path22"
         style="fill:#a1dfdc;fill-opacity:1;fill-rule:nonzero;stroke:none"
         d="M 3888.51,160.102 C 1894.92,175.27 286,1782.35 258.523,3766.05 c -0.769,-26.6 -1.328,-53.26 -1.527,-79.99 C 241.625,1665.72 1866.97,15.4688 3887.3,0.101563 5907.63,-15.2617 7557.88,1610.08 7573.26,3630.41 c 0.19,26.74 0.04,53.4 -0.32,80 C 7515.3,1727.36 5882.1,144.93 3888.51,160.102" /><path
         id="path24"
         style="fill:#f25085;fill-opacity:1;fill-rule:nonzero;stroke:none"
         d="m 3339.72,5882.86 c -134.81,63.41 -301.11,156.25 -331.66,312.8 7.85,-10.37 16.33,-20.24 25.43,-29.39 98.17,-98.53 254.68,-134.21 382.76,-175.45 152.61,-49.14 307.04,-92.65 462.82,-130.54 347.68,-84.54 702.02,-139.67 1058.64,-168.01 -365.87,-56.4 -731.09,-66.17 -1094.37,17.42 -173.21,39.86 -342.74,97.5 -503.62,173.17 z m -280.18,585.29 c 2.7,-12.36 7.81,-25.01 16.37,-37.92 64.06,-96.69 230.66,-146.93 331.99,-187.4 151.21,-60.39 304.23,-116.57 457.28,-172.09 337.69,-122.49 678.36,-239.62 1023.25,-340.58 -522.75,46.32 -1038.37,153.7 -1536.1,320.76 -130.06,43.66 -316.39,91.51 -354.93,244.83 -21.22,84.4 9.39,139 62.14,172.4 z m 53.91,24.96 c 69.53,23.12 154.77,23.98 217.3,13.44 286.16,-48.22 554.17,-180.83 810.22,-311.59 275.37,-140.64 539.01,-300.83 810.21,-448.64 -518.88,167.43 -1038.69,334.28 -1544.81,538.07 -63.82,25.69 -127.29,52.95 -187.77,85.88 -23.88,12.99 -48.57,26.11 -70.55,42.22 -33.36,24.45 -30.04,25.47 -33.99,72.8 -0.23,2.76 -0.43,5.32 -0.61,7.82 z m 36.51,77.79 c 115.53,92.76 274.21,90.28 410.99,57.74 258.58,-61.49 504.26,-200.97 724.46,-345.76 122.29,-80.41 240.05,-167.49 355.27,-257.67 100.24,-78.47 195.91,-166.06 298.91,-241.59 -257.37,172.42 -537.24,316.72 -812.78,456.44 -146.38,74.22 -294.25,146.54 -448.04,204.32 -138.5,52.03 -292.75,104.96 -442.35,108.16 -39.51,0.85 -81.07,-4.17 -119.88,-16.34 4.89,11.27 14.93,19.85 33.42,34.7 z m 1822.66,-852.41 c -1.46,1.68 -3.35,2.97 -5.61,3.9 2.39,5.21 2.25,11.19 -1.07,15.84 4.31,-2.33 8.57,-4.73 12.89,-7.06 -2.18,-4.19 -4.26,-8.4 -6.21,-12.68 z m 141.46,108.07 c 2.06,1.43 3.29,3.09 4.14,4.82 179.45,-67.28 363.93,-121.61 544.69,-185.26 92.64,-32.62 184.93,-66.2 276.87,-100.75 43.2,-16.24 87.02,-31.8 129.2,-50.64 41.01,-18.32 126.76,-52.54 148.59,-98.13 l 3.75,-103.41 c -15.98,-12.73 -31.98,-25.45 -47.97,-38.18 -32.91,-15.95 -73.94,-14.7 -108.86,-11.4 -54.08,5.1 -107.75,19.37 -160.59,31.36 -96.48,21.88 -192.28,46.67 -287.35,73.96 -200.85,57.65 -397.47,128.4 -589.77,210.09 -8.73,3.71 -15.98,0.82 -20.4,-4.76 -0.45,51.42 -13.45,94.04 4.62,146.39 19,55.03 56.15,93.56 103.08,125.91 z M 3746.24,5692.87 c 389.63,-103.5 818.92,-126.44 1210.49,-19.78 -11.52,-47 -7.46,-94.83 21.63,-132.53 5.78,-7.5 16.99,-6.62 23.36,-0.8 0.22,-7.15 3.83,-14.24 12.14,-17.81 247.48,-106.42 502.49,-194.65 763.94,-259.95 123.01,-30.72 452.55,-151.67 499.51,54.69 40.38,177.46 -289.99,256.77 -400.13,297.69 -254.29,94.46 -513.33,193.09 -778.23,253.37 -7.92,1.81 -14.01,-2.37 -16.51,-7.95 -20.39,-14.66 -44.73,-35.82 -53.77,-59.48 -9.04,-9.19 -17.54,-19.27 -25.46,-29.93 -99.9,101.23 -217.63,187.92 -329.12,275.58 -127.32,100.1 -257.68,196.55 -393.74,284.52 -239.8,155.03 -530.18,325.07 -819.75,353.69 -105.23,10.39 -215.65,-6 -305.77,-63.93 -41.58,-26.72 -82.75,-64.44 -94.37,-108.31 -36.96,-21.13 -68.1,-51.16 -87.35,-92.15 -24.37,-51.86 -21.55,-107.91 -1.85,-158.65 -4.62,-2.76 -7.9,-7.68 -7.93,-15.03 -0.5,-148.61 106.97,-255.44 226.32,-329.18 168.79,-104.28 365.75,-173.36 556.59,-224.06" /><path
         id="path26"
         style="fill:#a1dfdc;fill-opacity:1;fill-rule:nonzero;stroke:none"
         d="m 7356.84,4299.37 c 0,-18.76 -15.84,-33.94 -35.41,-33.94 -19.55,0 -35.39,15.18 -35.39,33.94 0,18.76 15.84,33.95 35.39,33.95 19.57,0 35.41,-15.19 35.41,-33.95" /><path
         id="path28"
         style="fill:#a1dfdc;fill-opacity:1;fill-rule:nonzero;stroke:none"
         d="m 7500.4,4382.98 c 0,-18.75 -15.84,-33.94 -35.4,-33.94 -19.55,0 -35.4,15.19 -35.4,33.94 0,18.76 15.85,33.95 35.4,33.95 19.56,0 35.4,-15.19 35.4,-33.95" /><path
         id="path30"
         style="fill:#a1dfdc;fill-opacity:1;fill-rule:nonzero;stroke:none"
         d="m 7504.78,4476.04 c 0,-18.76 -15.85,-33.95 -35.41,-33.95 -19.55,0 -35.4,15.19 -35.4,33.95 0,18.75 15.85,33.94 35.4,33.94 19.56,0 35.41,-15.19 35.41,-33.94" /><path
         id="path32"
         style="fill:#a1dfdc;fill-opacity:1;fill-rule:nonzero;stroke:none"
         d="m 7479.81,4551.87 c 0,-18.76 -15.84,-33.95 -35.4,-33.95 -19.55,0 -35.4,15.19 -35.4,33.95 0,18.75 15.85,33.94 35.4,33.94 19.56,0 35.4,-15.19 35.4,-33.94" /><path
         id="path34"
         style="fill:#a1dfdc;fill-opacity:1;fill-rule:nonzero;stroke:none"
         d="m 7491.63,4631.37 c 0,-18.76 -15.85,-33.95 -35.41,-33.95 -19.55,0 -35.4,15.19 -35.4,33.95 0,18.75 15.85,33.94 35.4,33.94 19.56,0 35.41,-15.19 35.41,-33.94" /><path
         id="path36"
         style="fill:#a1dfdc;fill-opacity:1;fill-rule:nonzero;stroke:none"
         d="m 7495.79,4719.01 c 0,-18.76 -15.85,-33.94 -35.41,-33.94 -19.55,0 -35.4,15.18 -35.4,33.94 0,18.76 15.85,33.95 35.4,33.95 19.56,0 35.41,-15.19 35.41,-33.95" /><path
         id="path38"
         style="fill:#a1dfdc;fill-opacity:1;fill-rule:nonzero;stroke:none"
         d="m 7244.99,4747.28 c 0,-18.75 -15.84,-33.94 -35.41,-33.94 -19.55,0 -35.39,15.19 -35.39,33.94 0,18.76 15.84,33.95 35.39,33.95 19.57,0 35.41,-15.19 35.41,-33.95" /><path
         id="path40"
         style="fill:#a1dfdc;fill-opacity:1;fill-rule:nonzero;stroke:none"
         d="m 7347.77,4870.32 c 0,-18.76 -15.85,-33.95 -35.41,-33.95 -19.55,0 -35.4,15.19 -35.4,33.95 0,18.75 15.85,33.94 35.4,33.94 19.56,0 35.41,-15.19 35.41,-33.94" /><path
         id="path42"
         style="fill:#a1dfdc;fill-opacity:1;fill-rule:nonzero;stroke:none"
         d="m 7296.8,4940.12 c 0,-18.75 -15.85,-33.94 -35.41,-33.94 -19.55,0 -35.4,15.19 -35.4,33.94 0,18.76 15.85,33.95 35.4,33.95 19.56,0 35.41,-15.19 35.41,-33.95" /><path
         id="path44"
         style="fill:#a1dfdc;fill-opacity:1;fill-rule:nonzero;stroke:none"
         d="m 7271.66,4986.26 c 0,-18.76 -15.84,-33.95 -35.4,-33.95 -19.55,0 -35.4,15.19 -35.4,33.95 0,18.75 15.85,33.94 35.4,33.94 19.56,0 35.4,-15.19 35.4,-33.94" /><path
         id="path46"
         style="fill:#a1dfdc;fill-opacity:1;fill-rule:nonzero;stroke:none"
         d="m 7142.57,4992.26 c 0,-18.75 -15.84,-33.94 -35.4,-33.94 -19.55,0 -35.4,15.19 -35.4,33.94 0,18.76 15.85,33.95 35.4,33.95 19.56,0 35.4,-15.19 35.4,-33.95" /><path
         id="path48"
         style="fill:#a1dfdc;fill-opacity:1;fill-rule:nonzero;stroke:none"
         d="m 7172.15,5084.59 c 0,-18.75 -15.84,-33.94 -35.4,-33.94 -19.55,0 -35.4,15.19 -35.4,33.94 0,18.76 15.85,33.95 35.4,33.95 19.56,0 35.4,-15.19 35.4,-33.95" /><path
         id="path50"
         style="fill:#a1dfdc;fill-opacity:1;fill-rule:nonzero;stroke:none"
         d="m 7154.26,5144.45 c 0,-18.76 -15.85,-33.95 -35.41,-33.95 -19.55,0 -35.4,15.19 -35.4,33.95 0,18.75 15.85,33.94 35.4,33.94 19.56,0 35.41,-15.19 35.41,-33.94" /><path
         id="path52"
         style="fill:#a1dfdc;fill-opacity:1;fill-rule:nonzero;stroke:none"
         d="m 7154.96,5212.75 c 0,-18.76 -15.84,-33.94 -35.4,-33.94 -19.55,0 -35.4,15.18 -35.4,33.94 0,18.76 15.85,33.94 35.4,33.94 19.56,0 35.4,-15.18 35.4,-33.94" /><path
         id="path54"
         style="fill:#a1dfdc;fill-opacity:1;fill-rule:nonzero;stroke:none"
         d="m 7271.99,5354.23 c 0,-18.76 -15.84,-33.95 -35.4,-33.95 -19.56,0 -35.41,15.19 -35.41,33.95 0,18.75 15.85,33.94 35.41,33.94 19.56,0 35.4,-15.19 35.4,-33.94" /><path
         id="path56"
         style="fill:#a1dfdc;fill-opacity:1;fill-rule:nonzero;stroke:none"
         d="m 7029.01,5355.05 c 0,-18.75 -15.84,-33.94 -35.41,-33.94 -19.55,0 -35.39,15.19 -35.39,33.94 0,18.76 15.84,33.95 35.39,33.95 19.57,0 35.41,-15.19 35.41,-33.95" /><path
         id="path58"
         style="fill:#a1dfdc;fill-opacity:1;fill-rule:nonzero;stroke:none"
         d="m 7007.71,5448.12 c 0,-18.76 -15.84,-33.94 -35.4,-33.94 -19.55,0 -35.4,15.18 -35.4,33.94 0,18.76 15.85,33.94 35.4,33.94 19.56,0 35.4,-15.18 35.4,-33.94" /><path
         id="path60"
         style="fill:#a1dfdc;fill-opacity:1;fill-rule:nonzero;stroke:none"
         d="m 7131.48,5616.21 c 0,-18.76 -15.85,-33.95 -35.41,-33.95 -19.55,0 -35.4,15.19 -35.4,33.95 0,18.75 15.85,33.94 35.4,33.94 19.56,0 35.41,-15.19 35.41,-33.94" /><path
         id="path62"
         style="fill:#a1dfdc;fill-opacity:1;fill-rule:nonzero;stroke:none"
         d="m 6925.11,5563.2 c 0,-18.75 -15.84,-33.94 -35.41,-33.94 -19.55,0 -35.39,15.19 -35.39,33.94 0,18.76 15.84,33.95 35.39,33.95 19.57,0 35.41,-15.19 35.41,-33.95" /><path
         id="path64"
         style="fill:#a1dfdc;fill-opacity:1;fill-rule:nonzero;stroke:none"
         d="m 6968.55,5701.24 c 0,-18.76 -15.85,-33.95 -35.41,-33.95 -19.55,0 -35.4,15.19 -35.4,33.95 0,18.75 15.85,33.94 35.4,33.94 19.56,0 35.41,-15.19 35.41,-33.94" /><path
         id="path66"
         style="fill:#a1dfdc;fill-opacity:1;fill-rule:nonzero;stroke:none"
         d="m 6845.98,5724.8 c 0,-18.76 -15.84,-33.95 -35.4,-33.95 -19.55,0 -35.4,15.19 -35.4,33.95 0,18.75 15.85,33.94 35.4,33.94 19.56,0 35.4,-15.19 35.4,-33.94" /><path
         id="path68"
         style="fill:#a1dfdc;fill-opacity:1;fill-rule:nonzero;stroke:none"
         d="m 6833.51,5783.14 c 0,-18.76 -15.84,-33.94 -35.4,-33.94 -19.55,0 -35.4,15.18 -35.4,33.94 0,18.76 15.85,33.95 35.4,33.95 19.56,0 35.4,-15.19 35.4,-33.95" /><path
         id="path70"
         style="fill:#a1dfdc;fill-opacity:1;fill-rule:nonzero;stroke:none"
         d="m 6744.13,5829.89 c 0,-18.76 -15.84,-33.95 -35.4,-33.95 -19.55,0 -35.4,15.19 -35.4,33.95 0,18.75 15.85,33.94 35.4,33.94 19.56,0 35.4,-15.19 35.4,-33.94" /><path
         id="path72"
         style="fill:#a1dfdc;fill-opacity:1;fill-rule:nonzero;stroke:none"
         d="m 6680.63,5877.3 c 0,-18.76 -15.84,-33.94 -35.41,-33.94 -19.55,0 -35.39,15.18 -35.39,33.94 0,18.76 15.84,33.95 35.39,33.95 19.57,0 35.41,-15.19 35.41,-33.95" /><path
         id="path74"
         style="fill:#a1dfdc;fill-opacity:1;fill-rule:nonzero;stroke:none"
         d="m 6771.05,6039.05 c 0,-18.75 -15.84,-33.94 -35.4,-33.94 -19.55,0 -35.4,15.19 -35.4,33.94 0,18.76 15.85,33.95 35.4,33.95 19.56,0 35.4,-15.19 35.4,-33.95" /><path
         id="path76"
         style="fill:#a1dfdc;fill-opacity:1;fill-rule:nonzero;stroke:none"
         d="m 6761.28,6158.26 c 0,-18.76 -15.84,-33.94 -35.41,-33.94 -19.55,0 -35.39,15.18 -35.39,33.94 0,18.76 15.84,33.95 35.39,33.95 19.57,0 35.41,-15.19 35.41,-33.95" /><path
         id="path78"
         style="fill:#a1dfdc;fill-opacity:1;fill-rule:nonzero;stroke:none"
         d="m 6599.32,6127.8 c 0,-18.75 -15.85,-33.94 -35.41,-33.94 -19.55,0 -35.4,15.19 -35.4,33.94 0,18.76 15.85,33.95 35.4,33.95 19.56,0 35.41,-15.19 35.41,-33.95" /><path
         id="path80"
         style="fill:#a1dfdc;fill-opacity:1;fill-rule:nonzero;stroke:none"
         d="m 6624.87,6220.99 c 0,-18.76 -15.84,-33.95 -35.4,-33.95 -19.55,0 -35.4,15.19 -35.4,33.95 0,18.75 15.85,33.94 35.4,33.94 19.56,0 35.4,-15.19 35.4,-33.94" /><path
         id="path82"
         style="fill:#a1dfdc;fill-opacity:1;fill-rule:nonzero;stroke:none"
         d="m 6611.36,6333.09 c 0,-18.76 -15.84,-33.94 -35.41,-33.94 -19.55,0 -35.39,15.18 -35.39,33.94 0,18.76 15.84,33.95 35.39,33.95 19.57,0 35.41,-15.19 35.41,-33.95" /><path
         id="path84"
         style="fill:#a1dfdc;fill-opacity:1;fill-rule:nonzero;stroke:none"
         d="m 6537.7,6372.38 c 0,-18.76 -15.84,-33.95 -35.4,-33.95 -19.55,0 -35.4,15.19 -35.4,33.95 0,18.75 15.85,33.94 35.4,33.94 19.56,0 35.4,-15.19 35.4,-33.94" /><path
         id="path86"
         style="fill:#a1dfdc;fill-opacity:1;fill-rule:nonzero;stroke:none"
         d="m 6383.1,6352.04 c 0,-18.75 -15.84,-33.94 -35.41,-33.94 -19.55,0 -35.39,15.19 -35.39,33.94 0,18.76 15.84,33.95 35.39,33.95 19.57,0 35.41,-15.19 35.41,-33.95" /><path
         id="path88"
         style="fill:#a1dfdc;fill-opacity:1;fill-rule:nonzero;stroke:none"
         d="m 6414.51,6456.6 c 0,-18.75 -15.84,-33.94 -35.41,-33.94 -19.55,0 -35.39,15.19 -35.39,33.94 0,18.76 15.84,33.95 35.39,33.95 19.57,0 35.41,-15.19 35.41,-33.95" /><path
         id="path90"
         style="fill:#a1dfdc;fill-opacity:1;fill-rule:nonzero;stroke:none"
         d="m 6282.03,6397.73 c 0,-18.75 -15.84,-33.94 -35.41,-33.94 -19.55,0 -35.39,15.19 -35.39,33.94 0,18.76 15.84,33.95 35.39,33.95 19.57,0 35.41,-15.19 35.41,-33.95" /><path
         id="path92"
         style="fill:#a1dfdc;fill-opacity:1;fill-rule:nonzero;stroke:none"
         d="m 6206.07,6433.19 c 0,-18.76 -15.84,-33.95 -35.4,-33.95 -19.55,0 -35.4,15.19 -35.4,33.95 0,18.75 15.85,33.94 35.4,33.94 19.56,0 35.4,-15.19 35.4,-33.94" /><path
         id="path94"
         style="fill:#a1dfdc;fill-opacity:1;fill-rule:nonzero;stroke:none"
         d="m 6213.1,6542.46 c 0,-18.75 -15.85,-33.94 -35.41,-33.94 -19.55,0 -35.4,15.19 -35.4,33.94 0,18.76 15.85,33.95 35.4,33.95 19.56,0 35.41,-15.19 35.41,-33.95" /><path
         id="path96"
         style="fill:#a1dfdc;fill-opacity:1;fill-rule:nonzero;stroke:none"
         d="m 6070.01,6535.88 c 0,-18.76 -15.84,-33.95 -35.41,-33.95 -19.55,0 -35.39,15.19 -35.39,33.95 0,18.75 15.84,33.94 35.39,33.94 19.57,0 35.41,-15.19 35.41,-33.94" /><path
         id="path98"
         style="fill:#a1dfdc;fill-opacity:1;fill-rule:nonzero;stroke:none"
         d="m 6070.15,6685.41 c 0,-18.76 -15.84,-33.95 -35.41,-33.95 -19.55,0 -35.4,15.19 -35.4,33.95 0,18.75 15.85,33.94 35.4,33.94 19.57,0 35.41,-15.19 35.41,-33.94" /><path
         id="path100"
         style="fill:#a1dfdc;fill-opacity:1;fill-rule:nonzero;stroke:none"
         d="m 5952.3,6639.28 c 0,-18.76 -15.85,-33.94 -35.41,-33.94 -19.55,0 -35.4,15.18 -35.4,33.94 0,18.76 15.85,33.94 35.4,33.94 19.56,0 35.41,-15.18 35.41,-33.94" /><path
         id="path102"
         style="fill:#a1dfdc;fill-opacity:1;fill-rule:nonzero;stroke:none"
         d="m 5898,6712 c 0,-18.77 -15.84,-33.95 -35.4,-33.95 -19.55,0 -35.4,15.18 -35.4,33.95 0,18.75 15.85,33.94 35.4,33.94 19.56,0 35.4,-15.19 35.4,-33.94" /><path
         id="path104"
         style="fill:#a1dfdc;fill-opacity:1;fill-rule:nonzero;stroke:none"
         d="m 5906.25,6858.2 c 0,-18.75 -15.85,-33.94 -35.41,-33.94 -19.55,0 -35.4,15.19 -35.4,33.94 0,18.76 15.85,33.94 35.4,33.94 19.56,0 35.41,-15.18 35.41,-33.94" /><path
         id="path106"
         style="fill:#a1dfdc;fill-opacity:1;fill-rule:nonzero;stroke:none"
         d="m 5758.09,6752.43 c 0,-18.76 -15.84,-33.95 -35.4,-33.95 -19.55,0 -35.4,15.19 -35.4,33.95 0,18.75 15.85,33.94 35.4,33.94 19.56,0 35.4,-15.19 35.4,-33.94" /><path
         id="path108"
         style="fill:#a1dfdc;fill-opacity:1;fill-rule:nonzero;stroke:none"
         d="m 5822.09,6955.28 c 0,-18.76 -15.84,-33.94 -35.4,-33.94 -19.55,0 -35.4,15.18 -35.4,33.94 0,18.76 15.85,33.95 35.4,33.95 19.56,0 35.4,-15.19 35.4,-33.95" /><path
         id="path110"
         style="fill:#a1dfdc;fill-opacity:1;fill-rule:nonzero;stroke:none"
         d="m 5667.91,6868.74 c 0,-18.76 -15.84,-33.95 -35.4,-33.95 -19.55,0 -35.4,15.19 -35.4,33.95 0,18.75 15.85,33.94 35.4,33.94 19.56,0 35.4,-15.19 35.4,-33.94" /><path
         id="path112"
         style="fill:#a1dfdc;fill-opacity:1;fill-rule:nonzero;stroke:none"
         d="m 5668.5,7061.02 c 0,-18.75 -15.84,-33.94 -35.41,-33.94 -19.55,0 -35.4,15.19 -35.4,33.94 0,18.76 15.85,33.95 35.4,33.95 19.57,0 35.41,-15.19 35.41,-33.95" /><path
         id="path114"
         style="fill:#a1dfdc;fill-opacity:1;fill-rule:nonzero;stroke:none"
         d="m 5556.13,6986.23 c 0,-18.76 -15.84,-33.95 -35.41,-33.95 -19.55,0 -35.39,15.19 -35.39,33.95 0,18.75 15.84,33.94 35.39,33.94 19.57,0 35.41,-15.19 35.41,-33.94" /><path
         id="path116"
         style="fill:#a1dfdc;fill-opacity:1;fill-rule:nonzero;stroke:none"
         d="m 5455.01,6932.28 c 0,-18.76 -15.84,-33.95 -35.4,-33.95 -19.55,0 -35.4,15.19 -35.4,33.95 0,18.76 15.85,33.94 35.4,33.94 19.56,0 35.4,-15.18 35.4,-33.94" /><path
         id="path118"
         style="fill:#a1dfdc;fill-opacity:1;fill-rule:nonzero;stroke:none"
         d="m 5491.42,7150.85 c 0,-18.76 -15.84,-33.95 -35.4,-33.95 -19.55,0 -35.4,15.19 -35.4,33.95 0,18.75 15.85,33.94 35.4,33.94 19.56,0 35.4,-15.19 35.4,-33.94" /><path
         id="path120"
         style="fill:#a1dfdc;fill-opacity:1;fill-rule:nonzero;stroke:none"
         d="m 5387.92,7051.18 c 0,-18.75 -15.84,-33.95 -35.41,-33.95 -19.55,0 -35.4,15.2 -35.4,33.95 0,18.75 15.85,33.95 35.4,33.95 19.57,0 35.41,-15.2 35.41,-33.95" /><path
         id="path122"
         style="fill:#a1dfdc;fill-opacity:1;fill-rule:nonzero;stroke:none"
         d="m 5379.51,7201.32 c 0,-18.75 -15.84,-33.94 -35.41,-33.94 -19.55,0 -35.4,15.19 -35.4,33.94 0,18.77 15.85,33.95 35.4,33.95 19.57,0 35.41,-15.18 35.41,-33.95" /><path
         id="path124"
         style="fill:#a1dfdc;fill-opacity:1;fill-rule:nonzero;stroke:none"
         d="m 5292.75,7255.93 c 0,-18.75 -15.84,-33.95 -35.4,-33.95 -19.55,0 -35.4,15.2 -35.4,33.95 0,18.75 15.85,33.95 35.4,33.95 19.56,0 35.4,-15.2 35.4,-33.95" /><path
         id="path126"
         style="fill:#a1dfdc;fill-opacity:1;fill-rule:nonzero;stroke:none"
         d="m 5135.74,7037.05 c 0,-18.76 -15.84,-33.95 -35.41,-33.95 -19.55,0 -35.4,15.19 -35.4,33.95 0,18.76 15.85,33.94 35.4,33.94 19.57,0 35.41,-15.18 35.41,-33.94" /><path
         id="path128"
         style="fill:#a1dfdc;fill-opacity:1;fill-rule:nonzero;stroke:none"
         d="m 5103.66,7208.13 c 0,-18.75 -15.84,-33.94 -35.41,-33.94 -19.55,0 -35.4,15.19 -35.4,33.94 0,18.76 15.85,33.95 35.4,33.95 19.57,0 35.41,-15.19 35.41,-33.95" /><path
         id="path130"
         style="fill:#a1dfdc;fill-opacity:1;fill-rule:nonzero;stroke:none"
         d="m 4990.19,7104.8 c 0,-18.76 -15.85,-33.95 -35.41,-33.95 -19.55,0 -35.4,15.19 -35.4,33.95 0,18.75 15.85,33.94 35.4,33.94 19.56,0 35.41,-15.19 35.41,-33.94" /><path
         id="path132"
         style="fill:#a1dfdc;fill-opacity:1;fill-rule:nonzero;stroke:none"
         d="m 4981.09,7224.42 c 0,-18.76 -15.84,-33.95 -35.4,-33.95 -19.55,0 -35.4,15.19 -35.4,33.95 0,18.75 15.85,33.94 35.4,33.94 19.56,0 35.4,-15.19 35.4,-33.94" /><path
         id="path134"
         style="fill:#a1dfdc;fill-opacity:1;fill-rule:nonzero;stroke:none"
         d="m 4883.6,7233.34 c 0,-18.76 -15.84,-33.95 -35.41,-33.95 -19.55,0 -35.39,15.19 -35.39,33.95 0,18.75 15.84,33.94 35.39,33.94 19.57,0 35.41,-15.19 35.41,-33.94" /><path
         id="path136"
         style="fill:#a1dfdc;fill-opacity:1;fill-rule:nonzero;stroke:none"
         d="m 4821.23,7345.43 c 0,-18.75 -15.84,-33.95 -35.4,-33.95 -19.55,0 -35.4,15.2 -35.4,33.95 0,18.76 15.85,33.95 35.4,33.95 19.56,0 35.4,-15.19 35.4,-33.95" /><path
         id="path138"
         style="fill:#a1dfdc;fill-opacity:1;fill-rule:nonzero;stroke:none"
         d="m 4688.99,7197.14 c 0,-18.76 -15.84,-33.95 -35.41,-33.95 -19.55,0 -35.39,15.19 -35.39,33.95 0,18.75 15.84,33.94 35.39,33.94 19.57,0 35.41,-15.19 35.41,-33.94" /><path
         id="path140"
         style="fill:#a1dfdc;fill-opacity:1;fill-rule:nonzero;stroke:none"
         d="m 4646.92,7269.73 c 0,-18.76 -15.85,-33.94 -35.41,-33.94 -19.55,0 -35.4,15.18 -35.4,33.94 0,18.75 15.85,33.95 35.4,33.95 19.56,0 35.41,-15.2 35.41,-33.95" /><path
         id="path142"
         style="fill:#a1dfdc;fill-opacity:1;fill-rule:nonzero;stroke:none"
         d="m 4580.18,7306.23 c 0,-18.76 -15.84,-33.95 -35.4,-33.95 -19.55,0 -35.4,15.19 -35.4,33.95 0,18.75 15.85,33.94 35.4,33.94 19.56,0 35.4,-15.19 35.4,-33.94" /><path
         id="path144"
         style="fill:#a1dfdc;fill-opacity:1;fill-rule:nonzero;stroke:none"
         d="m 4554.91,7469.24 c 0,-18.76 -15.84,-33.94 -35.41,-33.94 -19.55,0 -35.4,15.18 -35.4,33.94 0,18.76 15.85,33.94 35.4,33.94 19.57,0 35.41,-15.18 35.41,-33.94" /><path
         id="path146"
         style="fill:#a1dfdc;fill-opacity:1;fill-rule:nonzero;stroke:none"
         d="m 4398.33,7281.36 c 0,-18.75 -15.84,-33.94 -35.4,-33.94 -19.55,0 -35.4,15.19 -35.4,33.94 0,18.76 15.85,33.95 35.4,33.95 19.56,0 35.4,-15.19 35.4,-33.95" /><path
         id="path148"
         style="fill:#a1dfdc;fill-opacity:1;fill-rule:nonzero;stroke:none"
         d="m 4360.51,7359.78 c 0,-18.75 -15.85,-33.94 -35.41,-33.94 -19.55,0 -35.4,15.19 -35.4,33.94 0,18.76 15.85,33.95 35.4,33.95 19.56,0 35.41,-15.19 35.41,-33.95" /><path
         id="path150"
         style="fill:#a1dfdc;fill-opacity:1;fill-rule:nonzero;stroke:none"
         d="m 4285.46,7440.28 c 0,-18.76 -15.84,-33.94 -35.4,-33.94 -19.55,0 -35.4,15.18 -35.4,33.94 0,18.76 15.85,33.95 35.4,33.95 19.56,0 35.4,-15.19 35.4,-33.95" /><path
         id="path152"
         style="fill:#a1dfdc;fill-opacity:1;fill-rule:nonzero;stroke:none"
         d="m 4216.44,7439.89 c 0,-18.75 -15.85,-33.94 -35.41,-33.94 -19.55,0 -35.4,15.19 -35.4,33.94 0,18.76 15.85,33.95 35.4,33.95 19.56,0 35.41,-15.19 35.41,-33.95" /><path
         id="path154"
         style="fill:#a1dfdc;fill-opacity:1;fill-rule:nonzero;stroke:none"
         d="m 4110.83,7298 c 0,-18.75 -15.85,-33.94 -35.41,-33.94 -19.55,0 -35.4,15.19 -35.4,33.94 0,18.76 15.85,33.95 35.4,33.95 19.56,0 35.41,-15.19 35.41,-33.95" /><path
         id="path156"
         style="fill:#a1dfdc;fill-opacity:1;fill-rule:nonzero;stroke:none"
         d="m 4055.33,7311.41 c 0,-18.75 -15.84,-33.94 -35.41,-33.94 -19.55,0 -35.4,15.19 -35.4,33.94 0,18.76 15.85,33.95 35.4,33.95 19.57,0 35.41,-15.19 35.41,-33.95" /><path
         id="path158"
         style="fill:#a1dfdc;fill-opacity:1;fill-rule:nonzero;stroke:none"
         d="m 3990.78,7467.59 c 0,-18.76 -15.84,-33.95 -35.4,-33.95 -19.55,0 -35.4,15.19 -35.4,33.95 0,18.75 15.85,33.94 35.4,33.94 19.56,0 35.4,-15.19 35.4,-33.94" /><path
         id="path160"
         style="fill:#a1dfdc;fill-opacity:1;fill-rule:nonzero;stroke:none"
         d="m 3894.02,7321.3 c 0,-18.76 -15.85,-33.95 -35.41,-33.95 -19.55,0 -35.4,15.19 -35.4,33.95 0,18.75 15.85,33.94 35.4,33.94 19.56,0 35.41,-15.19 35.41,-33.94" /><path
         id="path162"
         style="fill:#a1dfdc;fill-opacity:1;fill-rule:nonzero;stroke:none"
         d="m 3818.65,7305.14 c 0,-18.76 -15.84,-33.95 -35.41,-33.95 -19.55,0 -35.4,15.19 -35.4,33.95 0,18.76 15.85,33.95 35.4,33.95 19.57,0 35.41,-15.19 35.41,-33.95" /><path
         id="path164"
         style="fill:#a1dfdc;fill-opacity:1;fill-rule:nonzero;stroke:none"
         d="m 3745.72,7293.65 c 0,-18.76 -15.84,-33.94 -35.4,-33.94 -19.56,0 -35.41,15.18 -35.41,33.94 0,18.76 15.85,33.95 35.41,33.95 19.56,0 35.4,-15.19 35.4,-33.95" /><path
         id="path166"
         style="fill:#a1dfdc;fill-opacity:1;fill-rule:nonzero;stroke:none"
         d="m 3675.54,7381.61 c 0,-18.76 -15.84,-33.94 -35.41,-33.94 -19.55,0 -35.39,15.18 -35.39,33.94 0,18.76 15.84,33.95 35.39,33.95 19.57,0 35.41,-15.19 35.41,-33.95" /><path
         id="path168"
         style="fill:#a1dfdc;fill-opacity:1;fill-rule:nonzero;stroke:none"
         d="m 3562.41,7464.44 c 0,-18.76 -15.85,-33.94 -35.41,-33.94 -19.55,0 -35.4,15.18 -35.4,33.94 0,18.76 15.85,33.95 35.4,33.95 19.56,0 35.41,-15.19 35.41,-33.95" /><path
         id="path170"
         style="fill:#a1dfdc;fill-opacity:1;fill-rule:nonzero;stroke:none"
         d="m 3483.65,7496 c 0,-18.75 -15.85,-33.94 -35.41,-33.94 -19.55,0 -35.4,15.19 -35.4,33.94 0,18.76 15.85,33.95 35.4,33.95 19.56,0 35.41,-15.19 35.41,-33.95" /><path
         id="path172"
         style="fill:#a1dfdc;fill-opacity:1;fill-rule:nonzero;stroke:none"
         d="m 3381.58,7515.74 c 0,-18.75 -15.84,-33.94 -35.4,-33.94 -19.55,0 -35.4,15.19 -35.4,33.94 0,18.76 15.85,33.95 35.4,33.95 19.56,0 35.4,-15.19 35.4,-33.95" /><path
         id="path174"
         style="fill:#a1dfdc;fill-opacity:1;fill-rule:nonzero;stroke:none"
         d="m 3338.13,7327.98 c 0,-18.75 -15.84,-33.94 -35.4,-33.94 -19.55,0 -35.4,15.19 -35.4,33.94 0,18.76 15.85,33.95 35.4,33.95 19.56,0 35.4,-15.19 35.4,-33.95" /><path
         id="path176"
         style="fill:#a1dfdc;fill-opacity:1;fill-rule:nonzero;stroke:none"
         d="m 3258.03,7392.91 c 0,-18.76 -15.84,-33.95 -35.41,-33.95 -19.55,0 -35.4,15.19 -35.4,33.95 0,18.75 15.85,33.94 35.4,33.94 19.57,0 35.41,-15.19 35.41,-33.94" /><path
         id="path178"
         style="fill:#a1dfdc;fill-opacity:1;fill-rule:nonzero;stroke:none"
         d="m 3190.19,7424.97 c 0,-18.76 -15.84,-33.95 -35.41,-33.95 -19.55,0 -35.39,15.19 -35.39,33.95 0,18.75 15.84,33.94 35.39,33.94 19.57,0 35.41,-15.19 35.41,-33.94" /><path
         id="path180"
         style="fill:#a1dfdc;fill-opacity:1;fill-rule:nonzero;stroke:none"
         d="m 3123.52,7398.64 c 0,-18.76 -15.84,-33.95 -35.41,-33.95 -19.55,0 -35.4,15.19 -35.4,33.95 0,18.75 15.85,33.94 35.4,33.94 19.57,0 35.41,-15.19 35.41,-33.94" /><path
         id="path182"
         style="fill:#a1dfdc;fill-opacity:1;fill-rule:nonzero;stroke:none"
         d="m 3051.18,7364.8 c 0,-18.75 -15.84,-33.94 -35.4,-33.94 -19.55,0 -35.4,15.19 -35.4,33.94 0,18.75 15.85,33.95 35.4,33.95 19.56,0 35.4,-15.2 35.4,-33.95" /><path
         id="path184"
         style="fill:#a1dfdc;fill-opacity:1;fill-rule:nonzero;stroke:none"
         d="m 3023.01,7231 c 0,-18.76 -15.84,-33.95 -35.4,-33.95 -19.56,0 -35.4,15.19 -35.4,33.95 0,18.76 15.84,33.94 35.4,33.94 19.56,0 35.4,-15.18 35.4,-33.94" /><path
         id="path186"
         style="fill:#a1dfdc;fill-opacity:1;fill-rule:nonzero;stroke:none"
         d="m 2898.66,7393.64 c 0,-18.76 -15.84,-33.94 -35.4,-33.94 -19.55,0 -35.4,15.18 -35.4,33.94 0,18.75 15.85,33.94 35.4,33.94 19.56,0 35.4,-15.19 35.4,-33.94" /><path
         id="path188"
         style="fill:#a1dfdc;fill-opacity:1;fill-rule:nonzero;stroke:none"
         d="m 2808.43,7333.32 c 0,-18.75 -15.84,-33.94 -35.41,-33.94 -19.55,0 -35.4,15.19 -35.4,33.94 0,18.76 15.85,33.95 35.4,33.95 19.57,0 35.41,-15.19 35.41,-33.95" /><path
         id="path190"
         style="fill:#a1dfdc;fill-opacity:1;fill-rule:nonzero;stroke:none"
         d="m 2741.72,7246.87 c 0,-18.75 -15.84,-33.94 -35.41,-33.94 -19.55,0 -35.4,15.19 -35.4,33.94 0,18.76 15.85,33.95 35.4,33.95 19.57,0 35.41,-15.19 35.41,-33.95" /><path
         id="path192"
         style="fill:#a1dfdc;fill-opacity:1;fill-rule:nonzero;stroke:none"
         d="m 2635.16,7355.87 c 0,-18.75 -15.85,-33.94 -35.41,-33.94 -19.55,0 -35.4,15.19 -35.4,33.94 0,18.76 15.85,33.95 35.4,33.95 19.56,0 35.41,-15.19 35.41,-33.95" /><path
         id="path194"
         style="fill:#a1dfdc;fill-opacity:1;fill-rule:nonzero;stroke:none"
         d="m 2597.39,7153.12 c 0,-18.76 -15.84,-33.95 -35.4,-33.95 -19.56,0 -35.41,15.19 -35.41,33.95 0,18.75 15.85,33.94 35.41,33.94 19.56,0 35.4,-15.19 35.4,-33.94" /><path
         id="path196"
         style="fill:#a1dfdc;fill-opacity:1;fill-rule:nonzero;stroke:none"
         d="m 2415.75,7336.73 c 0,-18.75 -15.84,-33.94 -35.41,-33.94 -19.55,0 -35.4,15.19 -35.4,33.94 0,18.75 15.85,33.95 35.4,33.95 19.57,0 35.41,-15.2 35.41,-33.95" /><path
         id="path198"
         style="fill:#a1dfdc;fill-opacity:1;fill-rule:nonzero;stroke:none"
         d="m 2365.96,7230.6 c 0,-18.76 -15.85,-33.95 -35.41,-33.95 -19.55,0 -35.4,15.19 -35.4,33.95 0,18.75 15.85,33.94 35.4,33.94 19.56,0 35.41,-15.19 35.41,-33.94" /><path
         id="path200"
         style="fill:#a1dfdc;fill-opacity:1;fill-rule:nonzero;stroke:none"
         d="m 2338.87,7030.72 c 0,-18.76 -15.84,-33.95 -35.41,-33.95 -19.55,0 -35.4,15.19 -35.4,33.95 0,18.75 15.85,33.94 35.4,33.94 19.57,0 35.41,-15.19 35.41,-33.94" /><path
         id="path202"
         style="fill:#a1dfdc;fill-opacity:1;fill-rule:nonzero;stroke:none"
         d="m 2257.56,6955 c 0,-18.76 -15.84,-33.95 -35.41,-33.95 -19.55,0 -35.39,15.19 -35.39,33.95 0,18.76 15.84,33.94 35.39,33.94 19.57,0 35.41,-15.18 35.41,-33.94" /><path
         id="path204"
         style="fill:#a1dfdc;fill-opacity:1;fill-rule:nonzero;stroke:none"
         d="m 2099.01,7069.05 c 0,-18.75 -15.85,-33.94 -35.41,-33.94 -19.55,0 -35.4,15.19 -35.4,33.94 0,18.76 15.85,33.95 35.4,33.95 19.56,0 35.41,-15.19 35.41,-33.95" /><path
         id="path206"
         style="fill:#a1dfdc;fill-opacity:1;fill-rule:nonzero;stroke:none"
         d="m 2045.11,6963.49 c 0,-18.76 -15.85,-33.95 -35.41,-33.95 -19.55,0 -35.4,15.19 -35.4,33.95 0,18.75 15.85,33.94 35.4,33.94 19.56,0 35.41,-15.19 35.41,-33.94" /><path
         id="path208"
         style="fill:#a1dfdc;fill-opacity:1;fill-rule:nonzero;stroke:none"
         d="m 1812.82,6952.28 c 0,-18.75 -15.84,-33.94 -35.41,-33.94 -19.55,0 -35.4,15.19 -35.4,33.94 0,18.76 15.85,33.95 35.4,33.95 19.57,0 35.41,-15.19 35.41,-33.95" /><path
         id="path210"
         style="fill:#a1dfdc;fill-opacity:1;fill-rule:nonzero;stroke:none"
         d="m 1777.42,6745.94 c 0,-18.76 -15.84,-33.94 -35.41,-33.94 -19.55,0 -35.4,15.18 -35.4,33.94 0,18.76 15.85,33.94 35.4,33.94 19.57,0 35.41,-15.18 35.41,-33.94" /><path
         id="path212"
         style="fill:#a1dfdc;fill-opacity:1;fill-rule:nonzero;stroke:none"
         d="m 355.398,2275.8 c 0,-18.76 -15.843,-33.94 -35.406,-33.94 -19.551,0 -35.398,15.18 -35.398,33.94" /><path
         id="path214"
         style="fill:#a1dfdc;fill-opacity:1;fill-rule:nonzero;stroke:none"
         d="m 291.652,2176.19 c 0,-18.76 -15.839,-33.94 -35.406,-33.94 -19.551,0 -35.394,15.18 -35.394,33.94 0,18.75 15.843,33.95 35.394,33.95 19.567,0 35.406,-15.2 35.406,-33.95" /><path
         id="path216"
         style="fill:#a1dfdc;fill-opacity:1;fill-rule:nonzero;stroke:none"
         d="m 486.496,2190.5 c 0,-18.75 -15.844,-33.95 -35.402,-33.95 -19.555,0 -35.403,15.2 -35.403,33.95 0,18.76 15.848,33.95 35.403,33.95 19.558,0 35.402,-15.19 35.402,-33.95" /><path
         id="path218"
         style="fill:#a1dfdc;fill-opacity:1;fill-rule:nonzero;stroke:none"
         d="m 397.273,2044.26 c 0,-18.75 -15.843,-33.95 -35.41,-33.95 -19.55,0 -35.394,15.2 -35.394,33.95 0,18.76 15.844,33.95 35.394,33.95 19.567,0 35.41,-15.19 35.41,-33.95" /><path
         id="path220"
         style="fill:#a1dfdc;fill-opacity:1;fill-rule:nonzero;stroke:none"
         d="m 488.039,1987.41 c 0,-18.76 -15.84,-33.94 -35.402,-33.94 -19.551,0 -35.399,15.18 -35.399,33.94 0,18.76 15.848,33.95 35.399,33.95 19.562,0 35.402,-15.19 35.402,-33.95" /><path
         id="path222"
         style="fill:#a1dfdc;fill-opacity:1;fill-rule:nonzero;stroke:none"
         d="m 582.898,1936.06 c 0,-18.76 -15.843,-33.95 -35.406,-33.95 -19.551,0 -35.398,15.19 -35.398,33.95 0,18.76 15.847,33.94 35.398,33.94 19.563,0 35.406,-15.18 35.406,-33.94" /><path
         id="path224"
         style="fill:#a1dfdc;fill-opacity:1;fill-rule:nonzero;stroke:none"
         d="m 622.531,1859.51 c 0,-18.75 -15.843,-33.94 -35.402,-33.94 -19.555,0 -35.402,15.19 -35.402,33.94 0,18.76 15.847,33.95 35.402,33.95 19.559,0 35.402,-15.19 35.402,-33.95" /><path
         id="path226"
         style="fill:#a1dfdc;fill-opacity:1;fill-rule:nonzero;stroke:none"
         d="m 757.355,1841.18 c 0,-18.76 -15.843,-33.94 -35.406,-33.94 -19.551,0 -35.398,15.18 -35.398,33.94 0,18.75 15.847,33.95 35.398,33.95 19.563,0 35.406,-15.2 35.406,-33.95" /><path
         id="path228"
         style="fill:#a1dfdc;fill-opacity:1;fill-rule:nonzero;stroke:none"
         d="m 712.766,1743.67 c 0,-18.75 -15.844,-33.94 -35.407,-33.94 -19.55,0 -35.398,15.19 -35.398,33.94 0,18.76 15.848,33.95 35.398,33.95 19.563,0 35.407,-15.19 35.407,-33.95" /><path
         id="path230"
         style="fill:#a1dfdc;fill-opacity:1;fill-rule:nonzero;stroke:none"
         d="m 770.77,1665.79 c 0,-18.76 -15.84,-33.94 -35.407,-33.94 -19.55,0 -35.398,15.18 -35.398,33.94 0,18.76 15.848,33.95 35.398,33.95 19.567,0 35.407,-15.19 35.407,-33.95" /><path
         id="path232"
         style="fill:#a1dfdc;fill-opacity:1;fill-rule:nonzero;stroke:none"
         d="m 902.895,1668.1 c 0,-18.76 -15.844,-33.95 -35.411,-33.95 -19.55,0 -35.394,15.19 -35.394,33.95 0,18.76 15.844,33.94 35.394,33.94 19.567,0 35.411,-15.18 35.411,-33.94" /><path
         id="path234"
         style="fill:#a1dfdc;fill-opacity:1;fill-rule:nonzero;stroke:none"
         d="m 821.141,1474.93 c 0,-18.75 -15.844,-33.94 -35.407,-33.94 -19.55,0 -35.398,15.19 -35.398,33.94 0,18.76 15.848,33.95 35.398,33.95 19.563,0 35.407,-15.19 35.407,-33.95" /><path
         id="path236"
         style="fill:#a1dfdc;fill-opacity:1;fill-rule:nonzero;stroke:none"
         d="m 869.676,1418.21 c 0,-18.75 -15.844,-33.94 -35.406,-33.94 -19.551,0 -35.399,15.19 -35.399,33.94 0,18.75 15.848,33.95 35.399,33.95 19.562,0 35.406,-15.2 35.406,-33.95" /><path
         id="path238"
         style="fill:#a1dfdc;fill-opacity:1;fill-rule:nonzero;stroke:none"
         d="m 889.938,1355.61 c 0,-18.76 -15.844,-33.95 -35.403,-33.95 -19.551,0 -35.402,15.19 -35.402,33.95 0,18.75 15.851,33.93 35.402,33.93 19.559,0 35.403,-15.18 35.403,-33.93" /><path
         id="path240"
         style="fill:#a1dfdc;fill-opacity:1;fill-rule:nonzero;stroke:none"
         d="m 954.793,1293.8 c 0,-18.76 -15.84,-33.94 -35.406,-33.94 -19.551,0 -35.399,15.18 -35.399,33.94 0,18.75 15.848,33.95 35.399,33.95 19.566,0 35.406,-15.2 35.406,-33.95" /><path
         id="path242"
         style="fill:#a1dfdc;fill-opacity:1;fill-rule:nonzero;stroke:none"
         d="m 1089.66,1286.34 c 0,-18.75 -15.85,-33.95 -35.41,-33.95 -19.55,0 -35.4,15.2 -35.4,33.95 0,18.76 15.85,33.95 35.4,33.95 19.56,0 35.41,-15.19 35.41,-33.95" /><path
         id="path244"
         style="fill:#a1dfdc;fill-opacity:1;fill-rule:nonzero;stroke:none"
         d="m 1195.27,1322.14 c 0,-18.76 -15.84,-33.94 -35.4,-33.94 -19.55,0 -35.4,15.18 -35.4,33.94 0,18.75 15.85,33.95 35.4,33.95 19.56,0 35.4,-15.2 35.4,-33.95" /><path
         id="path246"
         style="fill:#a1dfdc;fill-opacity:1;fill-rule:nonzero;stroke:none"
         d="m 1285.68,1305.71 c 0,-18.76 -15.84,-33.95 -35.4,-33.95 -19.55,0 -35.4,15.19 -35.4,33.95 0,18.75 15.85,33.94 35.4,33.94 19.56,0 35.4,-15.19 35.4,-33.94" /><path
         id="path248"
         style="fill:#a1dfdc;fill-opacity:1;fill-rule:nonzero;stroke:none"
         d="m 1354.19,1227.5 c 0,-18.76 -15.84,-33.94 -35.41,-33.94 -19.55,0 -35.4,15.18 -35.4,33.94 0,18.75 15.85,33.95 35.4,33.95 19.57,0 35.41,-15.2 35.41,-33.95" /><path
         id="path250"
         style="fill:#a1dfdc;fill-opacity:1;fill-rule:nonzero;stroke:none"
         d="m 1323.15,1073.61 c 0,-18.75 -15.84,-33.95 -35.4,-33.95 -19.55,0 -35.4,15.2 -35.4,33.95 0,18.76 15.85,33.94 35.4,33.94 19.56,0 35.4,-15.18 35.4,-33.94" /><path
         id="path252"
         style="fill:#a1dfdc;fill-opacity:1;fill-rule:nonzero;stroke:none"
         d="m 1435.09,1082.05 c 0,-18.75 -15.85,-33.94 -35.41,-33.94 -19.55,0 -35.4,15.19 -35.4,33.94 0,18.76 15.85,33.95 35.4,33.95 19.56,0 35.41,-15.19 35.41,-33.95" /><path
         id="path254"
         style="fill:#a1dfdc;fill-opacity:1;fill-rule:nonzero;stroke:none"
         d="m 1403.63,910.719 c 0,-18.758 -15.84,-33.938 -35.4,-33.938 -19.56,0 -35.4,15.18 -35.4,33.938 0,18.75 15.84,33.953 35.4,33.953 19.56,0 35.4,-15.203 35.4,-33.953" /><path
         id="path256"
         style="fill:#a1dfdc;fill-opacity:1;fill-rule:nonzero;stroke:none"
         d="m 1627.72,1046.27 c 0,-18.76 -15.85,-33.94 -35.41,-33.94 -19.55,0 -35.4,15.18 -35.4,33.94 0,18.76 15.85,33.95 35.4,33.95 19.56,0 35.41,-15.19 35.41,-33.95" /><path
         id="path258"
         style="fill:#a1dfdc;fill-opacity:1;fill-rule:nonzero;stroke:none"
         d="m 1640.33,933.699 c 0,-18.758 -15.84,-33.937 -35.41,-33.937 -19.55,0 -35.4,15.179 -35.4,33.937 0,18.75 15.85,33.949 35.4,33.949 19.57,0 35.41,-15.199 35.41,-33.949" /><path
         id="path260"
         style="fill:#a1dfdc;fill-opacity:1;fill-rule:nonzero;stroke:none"
         d="m 1673.01,847.91 c 0,-18.762 -15.84,-33.941 -35.4,-33.941 -19.56,0 -35.4,15.179 -35.4,33.941 0,18.75 15.84,33.949 35.4,33.949 19.56,0 35.4,-15.199 35.4,-33.949" /><path
         id="path262"
         style="fill:#a1dfdc;fill-opacity:1;fill-rule:nonzero;stroke:none"
         d="m 1713.95,724.25 c 0,-18.758 -15.85,-33.949 -35.41,-33.949 -19.55,0 -35.4,15.191 -35.4,33.949 0,18.75 15.85,33.949 35.4,33.949 19.56,0 35.41,-15.199 35.41,-33.949" /><path
         id="path264"
         style="fill:#a1dfdc;fill-opacity:1;fill-rule:nonzero;stroke:none"
         d="m 1930.91,878.422 c 0,-18.75 -15.84,-33.953 -35.4,-33.953 -19.55,0 -35.4,15.203 -35.4,33.953 0,18.758 15.85,33.949 35.4,33.949 19.56,0 35.4,-15.191 35.4,-33.949" /><path
         id="path266"
         style="fill:#a1dfdc;fill-opacity:1;fill-rule:nonzero;stroke:none"
         d="m 1983.89,832.02 c 0,-18.758 -15.84,-33.942 -35.4,-33.942 -19.55,0 -35.4,15.184 -35.4,33.942 0,18.75 15.85,33.949 35.4,33.949 19.56,0 35.4,-15.199 35.4,-33.949" /><path
         id="path268"
         style="fill:#a1dfdc;fill-opacity:1;fill-rule:nonzero;stroke:none"
         d="m 1992.84,690.539 c 0,-18.758 -15.84,-33.949 -35.4,-33.949 -19.55,0 -35.4,15.191 -35.4,33.949 0,18.75 15.85,33.941 35.4,33.941 19.56,0 35.4,-15.191 35.4,-33.941" /><path
         id="path270"
         style="fill:#a1dfdc;fill-opacity:1;fill-rule:nonzero;stroke:none"
         d="m 2081.98,714.891 c 0,-18.762 -15.84,-33.942 -35.41,-33.942 -19.55,0 -35.4,15.18 -35.4,33.942 0,18.75 15.85,33.949 35.4,33.949 19.57,0 35.41,-15.199 35.41,-33.949" /><path
         id="path272"
         style="fill:#a1dfdc;fill-opacity:1;fill-rule:nonzero;stroke:none"
         d="m 2153.62,674.75 c 0,-18.75 -15.85,-33.949 -35.41,-33.949 -19.55,0 -35.4,15.199 -35.4,33.949 0,18.762 15.85,33.941 35.4,33.941 19.56,0 35.41,-15.179 35.41,-33.941" /><path
         id="path274"
         style="fill:#a1dfdc;fill-opacity:1;fill-rule:nonzero;stroke:none"
         d="m 2159.71,506.129 c 0,-18.75 -15.84,-33.938 -35.4,-33.938 -19.55,0 -35.4,15.188 -35.4,33.938 0,18.762 15.85,33.953 35.4,33.953 19.56,0 35.4,-15.191 35.4,-33.953" /><path
         id="path276"
         style="fill:#a1dfdc;fill-opacity:1;fill-rule:nonzero;stroke:none"
         d="m 2293.59,659.5 c 0,-18.75 -15.85,-33.941 -35.41,-33.941 -19.55,0 -35.4,15.191 -35.4,33.941 0,18.762 15.85,33.949 35.4,33.949 19.56,0 35.41,-15.187 35.41,-33.949" /><path
         id="path278"
         style="fill:#a1dfdc;fill-opacity:1;fill-rule:nonzero;stroke:none"
         d="m 2330.97,560.301 c 0,-18.75 -15.85,-33.942 -35.41,-33.942 -19.55,0 -35.4,15.192 -35.4,33.942 0,18.758 15.85,33.949 35.4,33.949 19.56,0 35.41,-15.191 35.41,-33.949" /><path
         id="path280"
         style="fill:#a1dfdc;fill-opacity:1;fill-rule:nonzero;stroke:none"
         d="m 2411.04,549.16 c 0,-18.762 -15.85,-33.941 -35.41,-33.941 -19.55,0 -35.4,15.179 -35.4,33.941 0,18.75 15.85,33.949 35.4,33.949 19.56,0 35.41,-15.199 35.41,-33.949" /><path
         id="path282"
         style="fill:#a1dfdc;fill-opacity:1;fill-rule:nonzero;stroke:none"
         d="m 2497.54,493.281 c 0,-18.75 -15.85,-33.941 -35.41,-33.941 -19.55,0 -35.4,15.191 -35.4,33.941 0,18.758 15.85,33.949 35.4,33.949 19.56,0 35.41,-15.191 35.41,-33.949" /><path
         id="path284"
         style="fill:#a1dfdc;fill-opacity:1;fill-rule:nonzero;stroke:none"
         d="m 2530.36,390.469 c 0,-18.75 -15.85,-33.938 -35.41,-33.938 -19.55,0 -35.4,15.188 -35.4,33.938 0,18.761 15.85,33.953 35.4,33.953 19.56,0 35.41,-15.192 35.41,-33.953" /><path
         id="path286"
         style="fill:#a1dfdc;fill-opacity:1;fill-rule:nonzero;stroke:none"
         d="m 2587.23,308.32 c 0,-18.75 -15.84,-33.941 -35.4,-33.941 -19.55,0 -35.4,15.191 -35.4,33.941 0,18.762 15.85,33.95 35.4,33.95 19.56,0 35.4,-15.188 35.4,-33.95" /><path
         id="path288"
         style="fill:#a1dfdc;fill-opacity:1;fill-rule:nonzero;stroke:none"
         d="m 2646.21,315.398 c 0,-18.757 -15.84,-33.937 -35.4,-33.937 -19.55,0 -35.4,15.18 -35.4,33.937 0,18.75 15.85,33.954 35.4,33.954 19.56,0 35.4,-15.204 35.4,-33.954" /><path
         id="path290"
         style="fill:#a1dfdc;fill-opacity:1;fill-rule:nonzero;stroke:none"
         d="m 2724.96,356.711 c 0,-18.762 -15.84,-33.941 -35.41,-33.941 -19.55,0 -35.39,15.179 -35.39,33.941 0,18.75 15.84,33.949 35.39,33.949 19.57,0 35.41,-15.199 35.41,-33.949" /><path
         id="path292"
         style="fill:#a1dfdc;fill-opacity:1;fill-rule:nonzero;stroke:none"
         d="m 2792.63,258.172 c 0,-18.75 -15.85,-33.953 -35.41,-33.953 -19.55,0 -35.4,15.203 -35.4,33.953 0,18.758 15.85,33.937 35.4,33.937 19.56,0 35.41,-15.179 35.41,-33.937" /><path
         id="path294"
         style="fill:#a1dfdc;fill-opacity:1;fill-rule:nonzero;stroke:none"
         d="m 2909.79,416.879 c 0,-18.75 -15.84,-33.949 -35.41,-33.949 -19.55,0 -35.39,15.199 -35.39,33.949 0,18.762 15.84,33.941 35.39,33.941 19.57,0 35.41,-15.179 35.41,-33.941" /><path
         id="path296"
         style="fill:#a1dfdc;fill-opacity:1;fill-rule:nonzero;stroke:none"
         d="m 2942.32,314.98 c 0,-18.75 -15.84,-33.941 -35.4,-33.941 -19.55,0 -35.4,15.191 -35.4,33.941 0,18.762 15.85,33.95 35.4,33.95 19.56,0 35.4,-15.188 35.4,-33.95" /><path
         id="path298"
         style="fill:#a1dfdc;fill-opacity:1;fill-rule:nonzero;stroke:none"
         d="m 3019.2,353.398 c 0,-18.757 -15.84,-33.937 -35.41,-33.937 -19.55,0 -35.39,15.18 -35.39,33.937 0,18.762 15.84,33.954 35.39,33.954 19.57,0 35.41,-15.192 35.41,-33.954" /><path
         id="path300"
         style="fill:#a1dfdc;fill-opacity:1;fill-rule:nonzero;stroke:none"
         d="m 3087.97,213.75 c 0,-18.758 -15.85,-33.941 -35.41,-33.941 -19.55,0 -35.4,15.183 -35.4,33.941 0,18.75 15.85,33.949 35.4,33.949 19.56,0 35.41,-15.199 35.41,-33.949" /><path
         id="path302"
         style="fill:#a1dfdc;fill-opacity:1;fill-rule:nonzero;stroke:none"
         d="m 3165.39,205.441 c 0,-18.761 -15.84,-33.941 -35.41,-33.941 -19.55,0 -35.39,15.18 -35.39,33.941 0,18.758 15.84,33.95 35.39,33.95 19.57,0 35.41,-15.192 35.41,-33.95" /><path
         id="path304"
         style="fill:#a1dfdc;fill-opacity:1;fill-rule:nonzero;stroke:none"
         d="m 3280.14,365.922 c 0,-18.762 -15.84,-33.953 -35.41,-33.953 -19.55,0 -35.4,15.191 -35.4,33.953 0,18.75 15.85,33.949 35.4,33.949 19.57,0 35.41,-15.199 35.41,-33.949" /><path
         id="path306"
         style="fill:#a1dfdc;fill-opacity:1;fill-rule:nonzero;stroke:none"
         d="m 3368.2,250.309 c 0,-18.758 -15.84,-33.938 -35.4,-33.938 -19.56,0 -35.4,15.18 -35.4,33.938 0,18.761 15.84,33.953 35.4,33.953 19.56,0 35.4,-15.192 35.4,-33.953" /><path
         id="path308"
         style="fill:#a1dfdc;fill-opacity:1;fill-rule:nonzero;stroke:none"
         d="m 3463.47,349.41 c 0,-18.75 -15.85,-33.949 -35.41,-33.949 -19.55,0 -35.4,15.199 -35.4,33.949 0,18.762 15.85,33.942 35.4,33.942 19.56,0 35.41,-15.18 35.41,-33.942" /><path
         id="path310"
         style="fill:#a1dfdc;fill-opacity:1;fill-rule:nonzero;stroke:none"
         d="m 3525.35,340.039 c 0,-18.758 -15.85,-33.937 -35.41,-33.937 -19.55,0 -35.4,15.179 -35.4,33.937 0,18.762 15.85,33.949 35.4,33.949 19.56,0 35.41,-15.187 35.41,-33.949" /><path
         id="path312"
         style="fill:#a1dfdc;fill-opacity:1;fill-rule:nonzero;stroke:none"
         d="m 3608.16,317.051 c 0,-18.762 -15.84,-33.942 -35.4,-33.942 -19.55,0 -35.4,15.18 -35.4,33.942 0,18.75 15.85,33.949 35.4,33.949 19.56,0 35.4,-15.199 35.4,-33.949" /><path
         id="path314"
         style="fill:#a1dfdc;fill-opacity:1;fill-rule:nonzero;stroke:none"
         d="m 3691.95,321.559 c 0,-18.758 -15.85,-33.938 -35.41,-33.938 -19.55,0 -35.4,15.18 -35.4,33.938 0,18.75 15.85,33.953 35.4,33.953 19.56,0 35.41,-15.203 35.41,-33.953" /><path
         id="path316"
         style="fill:#a1dfdc;fill-opacity:1;fill-rule:nonzero;stroke:none"
         d="m 3743.26,152.238 c 0,-18.758 -15.85,-33.949 -35.41,-33.949 -19.55,0 -35.4,15.191 -35.4,33.949 0,18.75 15.85,33.942 35.4,33.942 19.56,0 35.41,-15.192 35.41,-33.942" /><path
         id="path318"
         style="fill:#a1dfdc;fill-opacity:1;fill-rule:nonzero;stroke:none"
         d="m 3834.35,171.949 c 0,-18.75 -15.85,-33.937 -35.41,-33.937 -19.55,0 -35.4,15.187 -35.4,33.937 0,18.762 15.85,33.942 35.4,33.942 19.56,0 35.41,-15.18 35.41,-33.942" /><path
         id="path320"
         style="fill:#a1dfdc;fill-opacity:1;fill-rule:nonzero;stroke:none"
         d="m 3906.79,414.551 c 0,-18.762 -15.84,-33.942 -35.4,-33.942 -19.55,0 -35.4,15.18 -35.4,33.942 0,18.75 15.85,33.949 35.4,33.949 19.56,0 35.4,-15.199 35.4,-33.949" /><path
         id="path322"
         style="fill:#a1dfdc;fill-opacity:1;fill-rule:nonzero;stroke:none"
         d="m 4011.8,424.859 c 0,-18.757 -15.84,-33.949 -35.41,-33.949 -19.55,0 -35.4,15.192 -35.4,33.949 0,18.762 15.85,33.942 35.4,33.942 19.57,0 35.41,-15.18 35.41,-33.942" /><path
         id="path324"
         style="fill:#a1dfdc;fill-opacity:1;fill-rule:nonzero;stroke:none"
         d="m 4081.98,247.09 c 0,-18.758 -15.84,-33.942 -35.4,-33.942 -19.56,0 -35.41,15.184 -35.41,33.942 0,18.762 15.85,33.949 35.41,33.949 19.56,0 35.4,-15.187 35.4,-33.949" /><path
         id="path326"
         style="fill:#a1dfdc;fill-opacity:1;fill-rule:nonzero;stroke:none"
         d="m 4136.37,364.281 c 0,-18.761 -15.85,-33.949 -35.41,-33.949 -19.55,0 -35.4,15.188 -35.4,33.949 0,18.75 15.85,33.938 35.4,33.938 19.56,0 35.41,-15.188 35.41,-33.938" /><path
         id="path328"
         style="fill:#a1dfdc;fill-opacity:1;fill-rule:nonzero;stroke:none"
         d="m 4222.26,449.5 c 0,-18.762 -15.84,-33.941 -35.4,-33.941 -19.55,0 -35.4,15.179 -35.4,33.941 0,18.75 15.85,33.949 35.4,33.949 19.56,0 35.4,-15.199 35.4,-33.949" /><path
         id="path330"
         style="fill:#a1dfdc;fill-opacity:1;fill-rule:nonzero;stroke:none"
         d="m 4336.96,227.34 c 0,-18.762 -15.84,-33.949 -35.4,-33.949 -19.56,0 -35.4,15.187 -35.4,33.949 0,18.75 15.84,33.941 35.4,33.941 19.56,0 35.4,-15.191 35.4,-33.941" /><path
         id="path332"
         style="fill:#a1dfdc;fill-opacity:1;fill-rule:nonzero;stroke:none"
         d="m 4399.86,409.18 c 0,-18.75 -15.84,-33.942 -35.4,-33.942 -19.55,0 -35.4,15.192 -35.4,33.942 0,18.761 15.85,33.949 35.4,33.949 19.56,0 35.4,-15.188 35.4,-33.949" /><path
         id="path334"
         style="fill:#a1dfdc;fill-opacity:1;fill-rule:nonzero;stroke:none"
         d="m 4490.47,376.219 c 0,-18.758 -15.84,-33.938 -35.4,-33.938 -19.55,0 -35.4,15.18 -35.4,33.938 0,18.75 15.85,33.949 35.4,33.949 19.56,0 35.4,-15.199 35.4,-33.949" /><path
         id="path336"
         style="fill:#a1dfdc;fill-opacity:1;fill-rule:nonzero;stroke:none"
         d="m 4606.58,276.531 c 0,-18.761 -15.84,-33.949 -35.41,-33.949 -19.55,0 -35.4,15.188 -35.4,33.949 0,18.758 15.85,33.938 35.4,33.938 19.57,0 35.41,-15.18 35.41,-33.938" /><path
         id="path338"
         style="fill:#a1dfdc;fill-opacity:1;fill-rule:nonzero;stroke:none"
         d="m 4674.86,361.289 c 0,-18.75 -15.84,-33.937 -35.4,-33.937 -19.55,0 -35.4,15.187 -35.4,33.937 0,18.762 15.85,33.949 35.4,33.949 19.56,0 35.4,-15.187 35.4,-33.949" /><path
         id="path340"
         style="fill:#a1dfdc;fill-opacity:1;fill-rule:nonzero;stroke:none"
         d="m 4792.56,323.84 c 0,-18.75 -15.84,-33.949 -35.4,-33.949 -19.55,0 -35.4,15.199 -35.4,33.949 0,18.762 15.85,33.949 35.4,33.949 19.56,0 35.4,-15.187 35.4,-33.949" /><path
         id="path342"
         style="fill:#a1dfdc;fill-opacity:1;fill-rule:nonzero;stroke:none"
         d="m 4864.69,339.461 c 0,-18.762 -15.84,-33.949 -35.4,-33.949 -19.55,0 -35.4,15.187 -35.4,33.949 0,18.75 15.85,33.937 35.4,33.937 19.56,0 35.4,-15.187 35.4,-33.937" /><path
         id="path344"
         style="fill:#a1dfdc;fill-opacity:1;fill-rule:nonzero;stroke:none"
         d="m 4924.8,339.871 c 0,-18.75 -15.84,-33.941 -35.41,-33.941 -19.55,0 -35.39,15.191 -35.39,33.941 0,18.758 15.84,33.949 35.39,33.949 19.57,0 35.41,-15.191 35.41,-33.949" /><path
         id="path346"
         style="fill:#a1dfdc;fill-opacity:1;fill-rule:nonzero;stroke:none"
         d="m 4981.09,424.039 c 0,-18.75 -15.84,-33.949 -35.41,-33.949 -19.55,0 -35.39,15.199 -35.39,33.949 0,18.75 15.84,33.941 35.39,33.941 19.57,0 35.41,-15.191 35.41,-33.941" /><path
         id="path348"
         style="fill:#a1dfdc;fill-opacity:1;fill-rule:nonzero;stroke:none"
         d="m 5053.86,486.75 c 0,-18.758 -15.84,-33.949 -35.4,-33.949 -19.55,0 -35.4,15.191 -35.4,33.949 0,18.75 15.85,33.949 35.4,33.949 19.56,0 35.4,-15.199 35.4,-33.949" /><path
         id="path350"
         style="fill:#a1dfdc;fill-opacity:1;fill-rule:nonzero;stroke:none"
         d="m 5184.18,396.629 c 0,-18.758 -15.85,-33.938 -35.41,-33.938 -19.55,0 -35.4,15.18 -35.4,33.938 0,18.75 15.85,33.949 35.4,33.949 19.56,0 35.41,-15.199 35.41,-33.949" /><path
         id="path352"
         style="fill:#a1dfdc;fill-opacity:1;fill-rule:nonzero;stroke:none"
         d="m 5235.93,480.801 c 0,-18.762 -15.85,-33.942 -35.41,-33.942 -19.55,0 -35.4,15.18 -35.4,33.942 0,18.75 15.85,33.949 35.4,33.949 19.56,0 35.41,-15.199 35.41,-33.949" /><path
         id="path354"
         style="fill:#a1dfdc;fill-opacity:1;fill-rule:nonzero;stroke:none"
         d="m 5262.94,569.219 c 0,-18.758 -15.84,-33.938 -35.41,-33.938 -19.55,0 -35.4,15.18 -35.4,33.938 0,18.75 15.85,33.953 35.4,33.953 19.57,0 35.41,-15.203 35.41,-33.953" /><path
         id="path356"
         style="fill:#a1dfdc;fill-opacity:1;fill-rule:nonzero;stroke:none"
         d="m 5371.09,480.18 c 0,-18.762 -15.84,-33.95 -35.4,-33.95 -19.55,0 -35.4,15.188 -35.4,33.95 0,18.75 15.85,33.941 35.4,33.941 19.56,0 35.4,-15.191 35.4,-33.941" /><path
         id="path358"
         style="fill:#a1dfdc;fill-opacity:1;fill-rule:nonzero;stroke:none"
         d="m 5372.8,661.379 c 0,-18.75 -15.85,-33.949 -35.41,-33.949 -19.55,0 -35.4,15.199 -35.4,33.949 0,18.762 15.85,33.941 35.4,33.941 19.56,0 35.41,-15.179 35.41,-33.941" /><path
         id="path360"
         style="fill:#a1dfdc;fill-opacity:1;fill-rule:nonzero;stroke:none"
         d="m 5512.09,608.16 c 0,-18.75 -15.85,-33.949 -35.41,-33.949 -19.55,0 -35.4,15.199 -35.4,33.949 0,18.762 15.85,33.942 35.4,33.942 19.56,0 35.41,-15.18 35.41,-33.942" /><path
         id="path362"
         style="fill:#a1dfdc;fill-opacity:1;fill-rule:nonzero;stroke:none"
         d="m 5566.66,721.691 c 0,-18.761 -15.84,-33.941 -35.41,-33.941 -19.55,0 -35.4,15.18 -35.4,33.941 0,18.75 15.85,33.95 35.4,33.95 19.57,0 35.41,-15.2 35.41,-33.95" /><path
         id="path364"
         style="fill:#a1dfdc;fill-opacity:1;fill-rule:nonzero;stroke:none"
         d="m 5713.17,656.199 c 0,-18.75 -15.85,-33.937 -35.41,-33.937 -19.55,0 -35.4,15.187 -35.4,33.937 0,18.762 15.85,33.949 35.4,33.949 19.56,0 35.41,-15.187 35.41,-33.949" /><path
         id="path366"
         style="fill:#a1dfdc;fill-opacity:1;fill-rule:nonzero;stroke:none"
         d="m 5754.88,731.469 c 0,-18.758 -15.84,-33.949 -35.4,-33.949 -19.56,0 -35.4,15.191 -35.4,33.949 0,18.761 15.84,33.941 35.4,33.941 19.56,0 35.4,-15.18 35.4,-33.941" /><path
         id="path368"
         style="fill:#a1dfdc;fill-opacity:1;fill-rule:nonzero;stroke:none"
         d="m 5778.89,832.398 c 0,-18.757 -15.84,-33.937 -35.4,-33.937 -19.55,0 -35.4,15.18 -35.4,33.937 0,18.75 15.85,33.954 35.4,33.954 19.56,0 35.4,-15.204 35.4,-33.954" /><path
         id="path370"
         style="fill:#a1dfdc;fill-opacity:1;fill-rule:nonzero;stroke:none"
         d="m 5832.44,910.449 c 0,-18.758 -15.84,-33.937 -35.4,-33.937 -19.55,0 -35.4,15.179 -35.4,33.937 0,18.75 15.85,33.949 35.4,33.949 19.56,0 35.4,-15.199 35.4,-33.949" /><path
         id="path372"
         style="fill:#a1dfdc;fill-opacity:1;fill-rule:nonzero;stroke:none"
         d="m 5867.62,972.77 c 0,-18.758 -15.84,-33.95 -35.41,-33.95 -19.55,0 -35.4,15.192 -35.4,33.95 0,18.761 15.85,33.94 35.4,33.94 19.57,0 35.41,-15.179 35.41,-33.94" /><path
         id="path374"
         style="fill:#a1dfdc;fill-opacity:1;fill-rule:nonzero;stroke:none"
         d="m 6149.99,927.898 c 0,-18.757 -15.85,-33.937 -35.41,-33.937 -19.55,0 -35.4,15.18 -35.4,33.937 0,18.75 15.85,33.954 35.4,33.954 19.56,0 35.41,-15.204 35.41,-33.954" /><path
         id="path376"
         style="fill:#a1dfdc;fill-opacity:1;fill-rule:nonzero;stroke:none"
         d="m 6217.2,972.84 c 0,-18.758 -15.84,-33.942 -35.4,-33.942 -19.55,0 -35.4,15.184 -35.4,33.942 0,18.75 15.85,33.95 35.4,33.95 19.56,0 35.4,-15.2 35.4,-33.95" /><path
         id="path378"
         style="fill:#a1dfdc;fill-opacity:1;fill-rule:nonzero;stroke:none"
         d="m 7207.84,2645.26 c 0,-18.76 -15.84,-33.95 -35.41,-33.95 -19.55,0 -35.4,15.19 -35.4,33.95 0,18.76 15.85,33.94 35.4,33.94 19.57,0 35.41,-15.18 35.41,-33.94" /><path
         id="path380"
         style="fill:#a1dfdc;fill-opacity:1;fill-rule:nonzero;stroke:none"
         d="m 7249.32,2716.03 c 0,-18.76 -15.84,-33.95 -35.4,-33.95 -19.55,0 -35.4,15.19 -35.4,33.95 0,18.76 15.85,33.94 35.4,33.94 19.56,0 35.4,-15.18 35.4,-33.94" /><path
         id="path382"
         style="fill:#a1dfdc;fill-opacity:1;fill-rule:nonzero;stroke:none"
         d="m 7234.93,2763.63 c 0,-18.75 -15.84,-33.94 -35.41,-33.94 -19.55,0 -35.4,15.19 -35.4,33.94 0,18.76 15.85,33.95 35.4,33.95 19.57,0 35.41,-15.19 35.41,-33.95" /><path
         id="path384"
         style="fill:#a1dfdc;fill-opacity:1;fill-rule:nonzero;stroke:none"
         d="m 7346.92,2795.76 c 0,-18.76 -15.84,-33.94 -35.4,-33.94 -19.55,0 -35.4,15.18 -35.4,33.94 0,18.75 15.85,33.95 35.4,33.95 19.56,0 35.4,-15.2 35.4,-33.95" /><path
         id="path386"
         style="fill:#a1dfdc;fill-opacity:1;fill-rule:nonzero;stroke:none"
         d="m 7351.81,2863.07 c 0,-18.76 -15.84,-33.95 -35.41,-33.95 -19.55,0 -35.39,15.19 -35.39,33.95 0,18.75 15.84,33.94 35.39,33.94 19.57,0 35.41,-15.19 35.41,-33.94" /><path
         id="path388"
         style="fill:#431f22;fill-opacity:1;fill-rule:nonzero;stroke:none"
         d="m 6719.75,3364.86 c -23.31,-60.24 -57.79,-124.35 -103.52,-192.34 -45.76,-68.03 -93.53,-122.4 -143.42,-163.19 h -2.49 c -33.3,-23.32 -69.04,-34.97 -107.27,-34.97 -24.93,0 -43.64,7.73 -56.11,23.31 -12.47,15.52 -18.71,44.67 -18.71,87.42 0,141.8 44.04,269.06 132.2,381.77 88.12,112.64 178.73,169.03 271.88,169.03 43.23,0 76.46,-14.58 99.78,-43.71 -31.62,-71.91 -55.74,-147.68 -72.34,-227.32 z m -2010.43,0 c -23.3,-60.24 -57.79,-124.35 -103.52,-192.34 -45.74,-68.03 -93.53,-122.4 -143.41,-163.19 h -2.5 c -33.29,-23.32 -69.02,-34.97 -107.25,-34.97 -24.95,0 -43.66,7.73 -56.13,23.31 -12.47,15.52 -18.71,44.67 -18.71,87.42 0,141.8 44.05,269.06 132.2,381.77 88.12,112.64 178.73,169.03 271.9,169.03 43.21,0 76.45,-14.58 99.76,-43.71 -31.6,-71.91 -55.73,-147.68 -72.34,-227.32 z M 3468.4,3051.58 c -47.39,-53.45 -96.89,-85.02 -148.42,-94.7 -11.65,-1.98 -22.44,-2.92 -32.42,-2.92 h -2.49 c -33.29,-1.96 -56.56,4.82 -69.85,20.4 -9.98,9.69 -14.96,25.22 -14.96,46.62 0,64.11 126.35,139.88 379.14,227.31 -26.62,-77.72 -63.6,-143.3 -111,-196.71 z m -1313.28,313.28 c -23.31,-60.24 -57.8,-124.35 -103.52,-192.34 -45.75,-68.03 -93.54,-122.4 -143.42,-163.19 h -2.5 c -33.28,-23.32 -69.02,-34.97 -107.25,-34.97 -24.95,0 -43.66,7.73 -56.13,23.31 -12.47,15.52 -18.7,44.67 -18.7,87.42 0,141.8 44.03,269.06 132.19,381.77 88.12,112.64 178.74,169.03 271.89,169.03 43.22,0 76.47,-14.58 99.77,-43.71 -31.6,-71.91 -55.72,-147.68 -72.33,-227.32 z m 1454.21,1078.27 c 126.36,172.89 252.75,310.81 379.15,413.81 126.36,102.95 232.79,154.45 319.29,154.45 48.2,0 73.14,-35.97 74.82,-107.82 -1.68,-87.43 -27.44,-179.73 -77.33,-276.85 -49.88,-97.17 -117.65,-188.47 -203.28,-273.94 -85.68,-85.51 -194.17,-157.87 -325.52,-217.11 -131.38,-59.28 -271.89,-92.79 -421.55,-100.53 78.14,147.62 162.95,283.63 254.42,407.99 z m 4007.15,-817.44 c -15.83,12.61 -29.54,9.18 -41.16,-10.21 -146.35,-260.36 -292.7,-443.96 -439.02,-550.78 l -2.49,-2.92 c -78.18,-52.45 -144.67,-78.68 -199.54,-78.68 -28.3,0 -47.83,8.75 -58.62,26.23 -10.83,17.49 -16.22,49.54 -16.22,96.16 0,157.37 50.71,339.96 152.16,547.88 21.59,42.71 19.1,73.81 -7.49,93.26 -16.64,7.74 -35.77,10.2 -57.36,7.28 -21.64,-2.92 -42.84,-11.2 -63.6,-24.77 -20.81,-13.62 -35.35,-27.23 -43.66,-40.8 -4.98,-9.75 -10.83,-20.4 -17.46,-32.05 -59.87,87.42 -133.06,131.13 -219.51,131.13 -76.51,0 -151.34,-33.51 -224.49,-100.54 -73.18,-67.02 -131.35,-149.62 -174.6,-247.71 -28.71,-65.15 -47.67,-128.79 -57.32,-190.94 -103.28,-152.48 -186.45,-266.12 -249.47,-340.9 -101.44,-122.41 -185.44,-183.6 -251.92,-183.6 -56.55,0 -93.96,25.23 -112.25,75.77 -39.91,106.83 -10.79,294.79 87.3,563.9 98.11,269.06 223.64,539.59 376.65,811.62 128.04,-64.12 239.46,-113.2 334.26,-147.18 94.78,-34.01 192.88,-53.91 294.32,-59.73 18.28,0 28.26,10.65 29.93,32.05 0,9.7 -2.49,17.94 -7.48,24.77 -4.99,6.79 -11.65,10.21 -19.96,10.21 -66.52,3.87 -136.35,16.02 -209.52,36.41 -73.19,20.4 -136.37,42.27 -189.57,65.58 -53.24,23.32 -119.72,54.37 -199.55,93.25 93.12,159.29 175.43,283.64 246.94,373.02 39.92,48.54 48.21,85.47 24.96,110.75 -19.97,15.52 -45.34,17.48 -76.1,5.83 -30.78,-11.66 -54.48,-27.23 -71.08,-46.63 -88.16,-99.09 -177.96,-222.48 -269.4,-370.11 -143.02,69.94 -276.04,124.31 -399.08,163.19 -123.06,38.85 -256.06,58.29 -399.1,58.29 -156.29,0 -281.01,-35.97 -374.17,-107.83 -69.83,-52.45 -113.06,-115.61 -129.7,-189.42 -4.99,-21.4 1.68,-34.97 19.95,-40.8 18.32,-5.83 29.94,1.92 34.93,23.32 1.67,9.69 5.42,21.35 11.22,34.96 5.85,13.57 19.14,33.98 39.91,61.2 20.81,27.19 46.15,51 76.07,71.4 29.93,20.41 73.21,38.84 129.72,55.37 56.55,16.49 120.58,24.77 192.07,24.77 136.36,0 263.57,-18.48 381.63,-55.36 118.06,-36.94 245.26,-88.44 381.64,-154.46 -108.11,-182.64 -202.9,-372.07 -284.36,-568.27 -26.5,-63.73 -50.31,-125.37 -71.45,-184.92 -122.53,-197.07 -245.05,-340.55 -367.55,-429.98 l -2.5,-2.92 c -78.18,-52.45 -144.68,-78.68 -199.55,-78.68 -28.3,0 -47.82,8.75 -58.62,26.23 -10.83,17.49 -16.2,49.54 -16.2,96.16 0,157.37 50.7,339.96 152.15,547.88 21.6,42.71 19.09,73.81 -7.49,93.26 -16.64,7.74 -35.78,10.2 -57.37,7.28 -21.62,-2.92 -42.82,-11.2 -63.6,-24.77 -20.81,-13.62 -35.35,-27.23 -43.65,-40.8 -4.99,-9.75 -10.83,-20.4 -17.47,-32.05 -59.86,87.42 -133.05,131.13 -219.5,131.13 -76.5,0 -151.34,-33.51 -224.49,-100.54 -33.71,-30.87 -64.08,-65.2 -91.43,-102.67 -23.81,-17.43 -53.89,-35.18 -90.63,-53.24 -63.23,-31.11 -122.67,-56.37 -178.36,-75.76 -55.72,-19.45 -132.63,-44.72 -230.72,-75.77 9.98,42.71 14.96,84.51 14.96,125.3 0,38.85 -5.42,78.19 -16.21,118.04 -10.84,39.79 -32.86,77.22 -66.1,112.19 -33.29,34.96 -74.83,52.45 -124.72,52.45 -89.8,0 -178.78,-44.71 -266.9,-134.05 -1.67,-1.95 -3.35,-3.92 -4.99,-5.82 -93.15,-97.18 -191.24,-250.63 -294.33,-460.46 76.47,273.94 177.1,534.26 301.81,781.02 320.93,5.82 591.99,115.56 813.18,329.3 91.43,87.43 164.19,184.05 218.25,289.96 54.02,105.87 83.56,207.37 88.54,304.55 0,1.9 0,3.86 0,5.82 0,3.87 0,6.29 0,7.29 0,0.95 0,3.37 0,7.28 0,23.32 -2.91,45.17 -8.72,65.57 -5.85,20.4 -15.83,41.76 -29.93,64.11 -14.15,22.32 -37.03,39.8 -68.6,52.46 -31.61,12.61 -70.7,18.95 -117.23,18.95 -69.84,0 -148.42,-25.28 -235.72,-75.78 -87.3,-50.54 -178.35,-123.39 -273.14,-218.56 -94.79,-95.22 -187.08,-206.91 -276.87,-335.14 -151.34,-217.61 -279.8,-456.08 -385.38,-715.44 -34.55,-84.86 -65.88,-170.21 -94.1,-256.01 -126.21,-206.3 -252.41,-355.65 -378.58,-447.77 l -2.49,-2.92 c -78.19,-52.45 -144.68,-78.68 -199.55,-78.68 -28.3,0 -47.83,8.75 -58.62,26.23 -10.84,17.49 -16.21,49.54 -16.21,96.16 0,157.37 50.7,339.96 152.15,547.88 21.59,42.71 19.1,73.81 -7.48,93.26 -16.65,7.74 -35.79,10.2 -57.38,7.28 -21.62,-2.92 -42.82,-11.2 -63.6,-24.77 -20.81,-13.62 -35.35,-27.23 -43.65,-40.8 -4.99,-9.75 -10.84,-20.4 -17.46,-32.05 -59.86,87.42 -133.06,131.13 -219.51,131.13 -76.5,0 -151.33,-33.51 -224.49,-100.54 -73.19,-67.02 -131.34,-149.62 -174.6,-247.71 -11.42,-25.92 -21.23,-51.58 -29.63,-77.03 -140.17,-211.31 -249.21,-363.92 -327.06,-457.72 -101.44,-120.49 -184.57,-180.69 -249.43,-180.69 -53.244,0 -89.803,27.19 -109.752,81.6 -31.609,95.17 -19.566,256.91 36.168,485.22 55.694,228.27 133.454,465.77 233.224,712.52 99.77,246.71 209.92,484.22 330.5,712.53 120.55,228.27 225.74,392.92 315.54,493.96 1.64,1.91 3.31,4.83 4.99,8.75 404.09,48.53 661.01,72.85 770.76,72.85 64.85,0 123.04,-3.91 174.6,-11.66 51.53,-7.78 90.62,-16.53 117.24,-26.23 26.58,-9.74 49.88,-20.39 69.84,-32.05 19.96,-11.66 32,-19.94 36.17,-24.77 4.13,-4.88 7.05,-9.25 8.73,-13.11 9.98,-19.45 22.84,-22.86 38.66,-10.2 15.78,12.61 18.71,27.68 8.73,45.17 -6.66,11.65 -17.07,23.77 -31.18,36.42 -14.14,12.61 -37.02,27.19 -68.59,43.71 -31.61,16.49 -78.18,30.1 -139.68,40.8 -61.55,10.66 -133.07,16.04 -214.52,16.04 -116.42,0 -389.98,-25.28 -820.64,-75.78 -83.18,-9.74 -247.81,-30.14 -493.89,-61.19 -562.097,-69.95 -882.195,-104.91 -960.34,-104.91 -88.16,0 -157.136,18.43 -207.031,55.37 -49.8865,36.88 -74.8279,88.38 -74.8279,154.45 0,9.7 -2.9258,17.48 -8.7305,23.31 -5.8437,5.83 -12.4765,8.75 -19.957,8.75 -7.4805,0 -14.1445,-2.92 -19.95704,-8.75 -5.84375,-5.83 -8.73046625,-13.61 -8.73046625,-23.31 0,-75.78 27.44140625,-140.88 82.31640625,-195.25 54.8785,-54.42 140.5075,-81.6 256.9175,-81.6 79.825,0 401.598,34.96 965.33,104.91 161.27,21.36 277.69,35.92 349.2,43.71 C 1544.01,5057.02 1428.03,4873.42 1305.8,4644.2 1183.58,4414.93 1075.46,4181.8 981.535,3944.79 887.566,3707.74 818.969,3479.47 775.75,3259.95 c -43.266,-219.57 -44.902,-384.68 -4.988,-495.42 36.554,-103 106.398,-154.45 209.523,-154.45 39.905,0 83.955,16.03 132.205,48.09 48.21,32.05 96.03,72.35 143.43,120.93 47.38,48.54 103.9,118.03 169.61,208.37 53.56,73.67 103.62,145.31 150.57,215.11 -1.29,-15.94 -2.17,-31.81 -2.17,-47.54 0,-54.42 6.67,-100.55 19.95,-138.44 13.33,-37.87 30.8,-65.56 52.39,-83.04 21.63,-17.48 42.4,-29.64 62.36,-36.43 19.96,-6.83 40.73,-10.2 62.36,-10.2 59.86,0 122.22,27.18 187.07,81.6 1.64,3.87 5.81,8.24 12.48,13.11 6.62,4.83 12.47,10.21 17.46,16.03 49.88,50.5 97.28,112.65 142.18,186.5 0,-17.48 0,-34.96 0,-52.45 0,-163.19 52.38,-244.79 157.14,-244.79 48.21,0 98.53,10.2 150.91,30.59 52.38,20.41 111.39,53.93 177.1,100.55 65.67,46.63 136.76,118.03 213.27,214.2 20.88,26.26 41.77,54.15 62.66,83.39 -30.32,-112.02 -55.41,-224.81 -75.13,-338.39 -4.99,-29.13 -1.25,-59.75 11.22,-91.8 12.47,-32.06 28.68,-50.04 48.64,-53.92 3.35,-1.95 7.48,-2.91 12.47,-2.91 23.31,0 40.77,17.49 52.38,52.47 157.96,359.4 294.34,598.36 409.07,716.89 81.46,64.11 150.49,77.69 207.05,40.79 43.21,-27.23 64.84,-77.71 64.84,-151.53 0,-54.42 -5.84,-108.82 -17.46,-163.2 -151.33,-48.59 -265.65,-96.17 -342.97,-142.79 -77.33,-46.63 -115.99,-100.1 -115.99,-160.29 0,-38.89 9.97,-69.94 29.93,-93.25 24.95,-29.14 61.5,-42.76 109.76,-40.8 h 2.49 c 13.29,0 25.76,0.95 37.41,2.92 113.07,19.39 216.16,88.37 309.31,206.9 49.88,64.11 88.93,133.06 117.23,206.91 1.64,0 4.13,0.45 7.49,1.46 3.31,0.96 5.8,1.45 7.48,1.45 111.39,36.9 195.81,65.08 253.18,84.53 56.93,19.24 119.61,45.74 188.03,79.38 -5.05,-10.28 -10,-20.66 -14.7,-31.31 -43.21,-98.11 -64.85,-192.84 -64.85,-284.13 0,-54.42 6.67,-100.55 19.96,-138.44 13.32,-37.87 30.79,-65.56 52.38,-83.04 21.62,-17.48 42.4,-29.64 62.35,-36.43 19.97,-6.83 40.73,-10.2 62.37,-10.2 59.86,0 122.21,27.18 187.07,81.6 1.64,3.87 5.81,8.24 12.47,13.11 6.63,4.83 12.48,10.21 17.46,16.03 49.89,50.5 97.28,112.65 142.19,186.5 0,-17.48 0,-34.96 0,-52.45 0,-163.19 52.37,-244.79 157.14,-244.79 48.21,0 98.53,10.2 150.91,30.59 52.38,20.41 111.38,53.93 177.09,100.55 65.68,46.63 136.77,118.03 213.28,214.2 15.89,20 31.8,41.06 47.71,62.78 -15.44,-56.67 -28.05,-111.13 -37.73,-163.33 -29.94,-161.29 -29.94,-285.59 0,-373.02 34.91,-97.17 102.25,-145.71 202.04,-145.71 39.9,0 83.94,15.58 132.19,46.63 48.22,31.06 95.61,71.4 142.18,120.94 46.54,49.54 103.09,118.98 169.62,208.37 34.99,47.01 68.39,93.32 100.4,139 1.89,-42.75 8.27,-79.91 19.29,-111.33 13.34,-37.87 30.79,-65.56 52.38,-83.04 21.64,-17.48 42.4,-29.64 62.37,-36.43 19.95,-6.83 40.73,-10.2 62.35,-10.2 59.87,0 122.23,27.18 187.09,81.6 1.63,3.87 5.81,8.24 12.47,13.11 6.63,4.83 12.47,10.21 17.46,16.03 49.88,50.5 97.28,112.65 142.17,186.5 0,-17.48 0,-34.96 0,-52.45 0,-163.19 52.38,-244.79 157.16,-244.79 48.21,0 98.52,10.2 150.89,30.59 52.39,20.41 111.4,53.93 177.1,100.55 65.68,46.63 136.77,118.03 213.28,214.2 76.47,96.16 152.96,212.23 229.48,348.25 11.62,17.48 9.55,32.5 -6.23,45.17" /><path
         id="path390"
         style="fill:#431f22;fill-opacity:1;fill-rule:nonzero;stroke:none"
         d="m 2302.95,3889.43 167.97,149.75 -115.05,15.78 -127.63,-155.29 74.71,-10.24" /><path
         id="path392"
         style="fill:#f25085;fill-opacity:1;fill-rule:nonzero;stroke:none"
         d="m 1493.21,2398.56 h 332.3 v -46.47 h -281.62 v -156.3 h 240.79 v -46.46 h -240.79 v -211.21 h -50.68 v 460.44" /><path
         id="path394"
         style="fill:#f25085;fill-opacity:1;fill-rule:nonzero;stroke:none"
         d="m 2005.71,2398.56 h 337.94 v -46.47 H 2056.4 v -157 h 246.42 v -46.47 H 2056.4 v -164.04 h 287.25 v -46.46 h -337.94 v 460.44" /><path
         id="path396"
         style="fill:#f25085;fill-opacity:1;fill-rule:nonzero;stroke:none"
         d="m 2739.98,2159.18 c 76.74,0 104.2,42.25 104.2,97.16 0,54.92 -27.46,95.75 -104.2,95.75 H 2586.5 v -192.91 z m -204.17,239.38 h 203.47 c 108.42,0 156.29,-60.55 156.29,-142.22 0,-76.04 -40.83,-126.72 -116.17,-140.8 l 133.07,-177.42 h -61.25 l -124.62,174.6 h -140.1 v -174.6 h -50.69 v 460.44" /><path
         id="path398"
         style="fill:#f25085;fill-opacity:1;fill-rule:nonzero;stroke:none"
         d="m 3081.4,2217.62 c 0,116.17 68.99,190.1 193.61,190.1 123.91,0 192.91,-73.93 192.91,-190.1 v -279.5 h -50.7 v 279.5 c 0,88.71 -49.28,143.62 -142.21,143.62 -93.64,0 -142.92,-54.91 -142.92,-143.62 v -279.5 h -50.69 v 279.5" /><path
         id="path400"
         style="fill:#f25085;fill-opacity:1;fill-rule:nonzero;stroke:none"
         d="m 4000.13,2139.47 v 71.11 c 0,92.94 -50.69,150.66 -149.26,150.66 -97.16,0 -148.55,-57.72 -148.55,-150.66 v -71.11 z m -347.09,71.11 c 0,121.09 70.4,197.14 198.54,197.14 128.84,0 199.24,-76.05 199.24,-197.14 v -272.46 h -50.69 v 154.89 h -297.81 v -154.89 h -49.28 v 272.46" /><path
         id="path402"
         style="fill:#f25085;fill-opacity:1;fill-rule:nonzero;stroke:none"
         d="m 4236.65,2217.62 c 0,116.17 69,190.1 193.62,190.1 123.9,0 192.91,-73.93 192.91,-190.1 v -279.5 h -50.7 v 279.5 c 0,88.71 -49.28,143.62 -142.21,143.62 -93.65,0 -142.92,-54.91 -142.92,-143.62 v -279.5 h -50.7 v 279.5" /><path
         id="path404"
         style="fill:#f25085;fill-opacity:1;fill-rule:nonzero;stroke:none"
         d="m 4984.31,1984.58 c 130.25,0 193.61,73.22 193.61,183.76 0,110.53 -63.36,183.75 -193.61,183.75 h -114.05 v -367.51 z m -164.75,413.98 h 164.75 c 159.11,0 244.31,-92.23 244.31,-230.22 0,-138 -85.2,-230.22 -244.31,-230.22 h -164.75 v 460.44" /><path
         id="path406"
         style="fill:#f25085;fill-opacity:1;fill-rule:nonzero;stroke:none"
         d="m 5412.32,2398.56 h 337.94 v -46.47 h -287.25 v -157 h 246.42 v -46.47 h -246.42 v -164.04 h 287.25 v -46.46 h -337.94 v 460.44" /><path
         id="path408"
         style="fill:#f25085;fill-opacity:1;fill-rule:nonzero;stroke:none"
         d="m 5919.18,2067.66 h 49.99 c 2.11,-58.44 45.06,-92.23 118.28,-92.23 73.22,0 118.28,35.91 118.28,92.23 0,60.55 -58.43,71.11 -121.1,80.26 -74.63,10.56 -154.88,24.64 -154.88,122.5 0,81.67 63.36,137.3 158.41,137.3 92.93,0 154.88,-52.81 157.7,-133.07 h -48.58 c -2.81,52.8 -42.94,86.59 -109.12,86.59 -66.89,0 -109.13,-35.19 -109.13,-89.41 0,-59.13 57.73,-69 120.39,-78.85 74.63,-11.97 155.59,-25.34 155.59,-123.92 0,-85.88 -66.18,-140.09 -167.56,-140.09 -99.98,0 -166.16,52.8 -168.27,138.69" /><path
         id="path410"
         style="fill:#431f22;fill-opacity:1;fill-rule:nonzero;stroke:none"
         d="m 2522.88,1289.52 c 0,79.86 58.67,138.52 141.78,138.52 66.81,0 118.15,-37.88 135.25,-94.51 h -30.96 c -15.89,40.74 -54.59,67.62 -104.29,67.62 -66.41,0 -112.45,-47.25 -112.45,-111.63 0,-64.37 46.04,-111.63 112.45,-111.63 49.7,0 88.4,26.9 104.29,67.63 h 30.96 c -17.1,-56.63 -68.44,-94.51 -135.25,-94.51 -83.11,0 -141.78,58.66 -141.78,138.51" /><path
         id="path412"
         style="fill:#431f22;fill-opacity:1;fill-rule:nonzero;stroke:none"
         d="m 3107.5,1289.52 c 0,64.38 -46.04,111.63 -112.44,111.63 -66.41,0 -112.45,-47.25 -112.45,-111.63 0,-64.37 46.04,-111.63 112.45,-111.63 66.4,0 112.44,47.26 112.44,111.63 z m -254.22,0 c 0,79.86 58.67,138.52 141.78,138.52 83.11,0 141.77,-58.66 141.77,-138.52 0,-79.85 -58.66,-138.51 -141.77,-138.51 -83.11,0 -141.78,58.66 -141.78,138.51" /><path
         id="path414"
         style="fill:#431f22;fill-opacity:1;fill-rule:nonzero;stroke:none"
         d="m 3196.31,1318.04 c 0,67.23 39.93,110 112.04,110 71.71,0 111.63,-42.77 111.63,-110 V 1156.3 h -29.34 v 161.74 c 0,51.34 -28.51,83.11 -82.29,83.11 -54.19,0 -82.71,-31.77 -82.71,-83.11 V 1156.3 h -29.33 v 161.74" /><path
         id="path416"
         style="fill:#431f22;fill-opacity:1;fill-rule:nonzero;stroke:none"
         d="m 3492.9,1422.75 h 192.29 v -26.89 h -162.96 v -90.45 h 139.34 v -26.88 H 3522.23 V 1156.3 h -29.33 v 266.45" /><path
         id="path418"
         style="fill:#431f22;fill-opacity:1;fill-rule:nonzero;stroke:none"
         d="m 3748.75,1422.75 h 195.56 v -26.89 H 3778.08 V 1305 h 142.59 v -26.88 h -142.59 v -94.93 h 166.23 v -26.89 h -195.56 v 266.45" /><path
         id="path420"
         style="fill:#431f22;fill-opacity:1;fill-rule:nonzero;stroke:none"
         d="m 4016,1422.75 h 29.33 V 1156.3 H 4016 v 266.45" /><path
         id="path422"
         style="fill:#431f22;fill-opacity:1;fill-rule:nonzero;stroke:none"
         d="m 4199.34,1395.86 h -90.45 v 26.89 h 210.22 v -26.89 h -90.44 V 1156.3 h -29.33 v 239.56" /><path
         id="path424"
         style="fill:#431f22;fill-opacity:1;fill-rule:nonzero;stroke:none"
         d="m 4567.63,1272.82 v 41.15 c 0,53.78 -29.34,87.18 -86.37,87.18 -56.23,0 -85.96,-33.4 -85.96,-87.18 v -41.15 z m -200.85,41.15 c 0,70.07 40.74,114.07 114.88,114.07 74.56,0 115.31,-44 115.31,-114.07 V 1156.3 h -29.34 v 89.63 H 4395.3 v -89.63 h -28.52 v 157.67" /><path
         id="path426"
         style="fill:#431f22;fill-opacity:1;fill-rule:nonzero;stroke:none"
         d="m 4788.04,1284.23 c 44.4,0 60.29,24.44 60.29,56.22 0,31.78 -15.89,55.41 -60.29,55.41 h -88.82 v -111.63 z m -118.15,138.52 h 117.74 c 62.74,0 90.44,-35.04 90.44,-82.3 0,-44 -23.62,-73.34 -67.22,-81.48 l 77,-102.67 h -35.44 l -72.11,101.04 h -81.08 V 1156.3 h -29.33 v 266.45" /><path
         id="path428"
         style="fill:#431f22;fill-opacity:1;fill-rule:nonzero;stroke:none"
         d="m 4952.21,1422.75 h 29.34 V 1156.3 h -29.34 v 266.45" /><path
         id="path430"
         style="fill:#431f22;fill-opacity:1;fill-rule:nonzero;stroke:none"
         d="m 5255.73,1272.82 v 41.15 c 0,53.78 -29.34,87.18 -86.37,87.18 -56.23,0 -85.97,-33.4 -85.97,-87.18 v -41.15 z m -200.85,41.15 c 0,70.07 40.74,114.07 114.88,114.07 74.56,0 115.3,-44 115.3,-114.07 V 1156.3 h -29.33 v 89.63 h -172.34 v -89.63 h -28.51 v 157.67" /><path
         id="path432"
         style="fill:#f25085;fill-opacity:1;fill-rule:nonzero;stroke:none"
         d="m 2458.94,1263 h -411.73 v 32.29 h 411.73 V 1263" /><path
         id="path434"
         style="fill:#f25085;fill-opacity:1;fill-rule:nonzero;stroke:none"
         d="m 5792.5,1263 h -411.73 v 32.29 H 5792.5 V 1263" /><path
         id="path436"
         style="fill:#f25085;fill-opacity:1;fill-rule:nonzero;stroke:none"
         d="m 6034.75,5431.88 c -29.16,0 -52.89,-23.72 -52.89,-52.89 0,-29.16 23.73,-52.89 52.89,-52.89 29.16,0 52.89,23.73 52.89,52.89 0,29.17 -23.73,52.89 -52.89,52.89 z m 0,-135.78 c -45.7,0 -82.89,37.18 -82.89,82.89 0,45.71 37.19,82.89 82.89,82.89 45.7,0 82.89,-37.18 82.89,-82.89 0,-45.71 -37.19,-82.89 -82.89,-82.89" /><path
         id="path438"
         style="fill:#431f22;fill-opacity:1;fill-rule:nonzero;stroke:none"
         d="m 3396.43,5925.52 c 13.35,19.22 19.1,42.91 11.35,64.84 -13.3,37.63 -184.55,148.25 -52.2,172.64 21.81,4.02 44.06,-0.89 65.57,-5.85 21.51,-4.96 43.7,-10.01 65.56,-6.27 33.1,5.65 61.6,33.17 68.42,66.07 6.83,32.91 -8.46,69.02 -36.71,86.71 -20.34,12.75 -45.17,15.98 -67.42,25.06 -13.25,5.4 -39.15,24.53 -42.63,52.28 -2.32,18.52 6.33,38.11 19.13,50.76 39.11,38.64 96.98,-7.26 149.42,28.24 38.65,26.16 47.08,78.09 48.94,89.6 2.46,15.16 7.01,43.21 -5.42,70.4 -26.13,57.18 -108.34,68.92 -161.17,76.47 -24.39,3.48 -70.78,9.7 -132.01,-1.61 -119.21,-22.02 -310.94,-113.49 -362.11,-303.1 -26.54,-98.35 -3.9,-180.97 5.67,-214.26 48.59,-168.97 188.78,-257.96 266.08,-282.48 38.74,-12.28 81.88,-18.33 119.31,-2.51 16.01,6.77 30.24,18.64 40.22,33.01" /></g></g></svg>